<?xml version="1.0" encoding="UTF-8" standalone="no"?>
<!-- Created with Inkscape (http://www.inkscape.org/) -->

<svg
   xmlns:dc="http://purl.org/dc/elements/1.1/"
   xmlns:cc="http://creativecommons.org/ns#"
   xmlns:rdf="http://www.w3.org/1999/02/22-rdf-syntax-ns#"
   xmlns:svg="http://www.w3.org/2000/svg"
   xmlns="http://www.w3.org/2000/svg"
   xmlns:sodipodi="http://sodipodi.sourceforge.net/DTD/sodipodi-0.dtd"
   xmlns:inkscape="http://www.inkscape.org/namespaces/inkscape"
   width="64"
   height="64"
   id="svg2"
   version="1.1"
   inkscape:version="0.48.3.1 r9886"
   inkscape:export-filename="/home/alump/Development/bttagwriter/res/drawable-hdpi/audio_device_type.png"
   inkscape:export-xdpi="87.1875"
   inkscape:export-ydpi="87.1875"
   sodipodi:docname="New document 1">
  <defs
     id="defs4">
    <filter
       inkscape:collect="always"
       id="filter3906">
      <feGaussianBlur
         inkscape:collect="always"
         stdDeviation="0.47443552"
         id="feGaussianBlur3908" />
    </filter>
    <filter
       inkscape:collect="always"
       id="filter3914">
      <feGaussianBlur
         inkscape:collect="always"
         stdDeviation="0.56850006"
         id="feGaussianBlur3916" />
    </filter>
    <filter
       inkscape:collect="always"
       id="filter3922">
      <feGaussianBlur
         inkscape:collect="always"
         stdDeviation="0.51003842"
         id="feGaussianBlur3924" />
    </filter>
    <filter
       inkscape:collect="always"
       id="filter3938">
      <feGaussianBlur
         inkscape:collect="always"
         stdDeviation="0.49584529"
         id="feGaussianBlur3940" />
    </filter>
    <filter
       inkscape:collect="always"
       id="filter3964">
      <feGaussianBlur
         inkscape:collect="always"
         stdDeviation="0.48163153"
         id="feGaussianBlur3966" />
    </filter>
  </defs>
  <sodipodi:namedview
     id="base"
     pagecolor="#ffffff"
     bordercolor="#666666"
     borderopacity="1.0"
     inkscape:pageopacity="0.0"
     inkscape:pageshadow="2"
     inkscape:zoom="2.8"
     inkscape:cx="-4.0822922"
     inkscape:cy="15.796573"
     inkscape:document-units="px"
     inkscape:current-layer="layer1"
     showgrid="false"
     inkscape:window-width="1092"
     inkscape:window-height="817"
     inkscape:window-x="65"
     inkscape:window-y="24"
     inkscape:window-maximized="0" />
  <metadata
     id="metadata7">
    <rdf:RDF>
      <cc:Work
         rdf:about="">
        <dc:format>image/svg+xml</dc:format>
        <dc:type
           rdf:resource="http://purl.org/dc/dcmitype/StillImage" />
        <dc:title></dc:title>
      </cc:Work>
    </rdf:RDF>
  </metadata>
  <g
     inkscape:label="Layer 1"
     inkscape:groupmode="layer"
     id="layer1"
     transform="translate(0,-988.36218)">
    <g
       id="g3972"
       transform="translate(39.48599,-86.96532)">
      <path
         transform="translate(-37.5,1075.8622)"
         d="m 23.15625,2 c -0.116222,0.027389 -0.205673,0.1153316 -0.3125,0.15625 l -0.1875,0 C 21.080546,2.15625 19.75,3.4867965 19.75,5.0625 l 0,31.625 c -1.887232,-0.0543 -3.892005,0.09235 -6,0.65625 -3.321854,0.888616 -6.1785871,2.431297 -8.1875,4.28125 -2.0089129,1.849953 -3.3029177,4.190087 -2.75,6.59375 0.5531973,2.404879 2.7672728,3.893251 5.375,4.53125 2.607727,0.637999 5.800619,0.545542 9.125,-0.34375 5.601463,-1.498425 10.021872,-4.672572 10.90625,-8.625 -0.0186,0.08312 0.04116,-0.111237 0.09375,-0.40625 0.0086,-0.04846 0.02319,-0.0031 0.03125,-0.0625 l -0.03125,0 c 0.01564,-0.07976 0.0625,-0.206483 0.0625,-0.4375 l 0,-0.375 0,-20.6875 19.78125,4 0,19.125 c -1.743229,-0.01482 -3.596641,0.11833 -5.53125,0.625 -3.292329,0.862253 -6.100813,2.352393 -8.09375,4.15625 -1.992937,1.803857 -3.306071,4.102057 -2.75,6.46875 0.556261,2.367501 2.764759,3.797103 5.34375,4.40625 2.578991,0.609147 5.740591,0.518066 9.03125,-0.34375 2.735207,-0.716345 5.141695,-1.860994 7.03125,-3.25 1.699692,-1.249439 2.927512,-2.733387 3.53125,-4.40625 C 56.78619,52.406884 56.950672,52.254938 57,52.0625 l -0.09375,-0.03125 c 0.207083,-0.429691 0.4375,-0.853839 0.4375,-1.3125 l 0,-39.46875 c 0,-1.2649802 -0.914284,-2.1972254 -2.0625,-2.625 L 55.3125,8.5625 C 55.064297,8.3651369 54.660419,8.0817979 54.09375,7.96875 l -27.46875,-5.5 0,0.0625 c -0.379228,-0.1676884 -0.742507,-0.375 -1.15625,-0.375 L 25,2.15625 24.21875,2 c -0.319304,-0.0637 -0.713321,-0.082289 -1.0625,0 z m 5.21875,9.625 19.78125,3.90625 0,1.5 -19.78125,-4 0,-1.40625 z"
         id="path3863"
         style="fill:#000000;fill-opacity:0.77625571;fill-rule:evenodd;stroke:none;filter:url(#filter3914)"
         inkscape:original="M 23.5 3.4375 C 23.362665 3.469865 23.224916 3.5379151 23.125 3.625 L 22.65625 3.625 C 21.850718 3.625 21.21875 4.2569683 21.21875 5.0625 L 21.21875 38.1875 C 19.147785 37.92052 16.68322 38.096911 14.125 38.78125 C 7.8906678 40.448972 3.4767495 44.513498 4.25 47.875 C 5.0232505 51.236502 10.703168 52.636472 16.9375 50.96875 C 22.186848 49.564518 26.120031 46.423845 26.78125 43.46875 C 26.80716 43.352956 26.85937 43.240199 26.875 43.125 C 26.89038 43.03993 26.90625 42.96464 26.90625 42.875 L 26.90625 42.5 L 26.90625 20.03125 L 49.625 24.625 L 49.625 46.40625 C 47.660215 46.216632 45.369463 46.379443 43 47 C 36.820844 48.618307 32.452343 52.581849 33.21875 55.84375 C 33.985157 59.105651 39.602094 60.430807 45.78125 58.8125 C 50.919945 57.466687 54.835641 54.523103 55.5625 51.6875 C 55.766508 51.428991 55.875 51.075103 55.875 50.71875 L 55.875 11.25 C 55.875 10.420155 55.231561 9.7369859 54.40625 9.71875 C 54.220234 9.5708362 54.03923 9.4514816 53.8125 9.40625 L 26.34375 3.90625 C 26.101029 3.7244615 25.796678 3.625 25.46875 3.625 L 24.875 3.625 L 23.9375 3.4375 C 23.774424 3.404967 23.637335 3.405135 23.5 3.4375 z M 26.90625 9.84375 L 49.625 14.34375 L 49.625 18.8125 L 26.90625 14.21875 L 26.90625 9.84375 z "
         inkscape:radius="1.4725378"
         sodipodi:type="inkscape:offset" />
      <path
         inkscape:connector-curvature="0"
         style="fill:#ffffff;fill-opacity:1;fill-rule:evenodd;stroke:none"
         d="m -14.357142,1078.9426 c -0.137335,0.032 -0.275084,0.1004 -0.375,0.1875 l -0.46875,0 c -0.805532,0 -1.4375,0.632 -1.4375,1.4375 l 0,33.125 c -2.070965,-0.267 -4.53553,-0.091 -7.09375,0.5937 -6.234333,1.6678 -10.648251,5.7323 -9.875001,9.0938 0.773251,3.3615 6.453169,4.7615 12.687501,3.0937 5.249348,-1.4042 9.182531,-4.5449 9.84375,-7.5 0.02591,-0.1157 0.07812,-0.2285 0.09375,-0.3437 0.01538,-0.085 0.03125,-0.1604 0.03125,-0.25 l 0,-0.375 0,-22.4688 22.71875,4.5938 0,21.7812 c -1.9647853,-0.1896 -4.2555382,-0.027 -6.6250012,0.5938 -6.179156,1.6183 -10.547657,5.5818 -9.78125,8.8437 0.766407,3.2619 6.383344,4.5871 12.5625,2.9688 5.1386962,-1.3458 9.0543922,-4.2894 9.7812512,-7.125 0.204008,-0.2585 0.3125,-0.6124 0.3125,-0.9688 l 0,-39.4687 c 0,-0.8299 -0.643439,-1.513 -1.46875,-1.5313 -0.186016,-0.1479 -0.36702,-0.2672 -0.59375,-0.3125 l -27.46875,-5.5 c -0.242721,-0.1817 -0.547072,-0.2812 -0.875,-0.2812 l -0.59375,0 -0.9375,-0.1875 c -0.163076,-0.033 -0.300165,-0.032 -0.4375,0 z m 3.40625,6.4062 22.71875,4.5 0,4.4688 -22.71875,-4.5938 0,-4.375 z"
         id="path3851" />
    </g>
    <g
       id="g3968"
       transform="translate(-94.92839,-15.823063)">
      <path
         d="m 36.15625,1005.5312 c -1.459072,0 -2.95763,0.1365 -4.46875,0.4063 -1.487146,0.2657 -2.968284,0.6442 -4.4375,1.125 l 0,-0.031 c -1.423487,0.4483 -2.786753,0.9915 -4.125,1.5938 -0.0088,0 -0.02242,-0 -0.03125,0 -1.315422,0.5801 -2.555447,1.2169 -3.6875,1.875 a 1.4286642,1.4286642 0 0 0 -0.5625,1.8438 l 3.90625,8.4374 a 1.4286642,1.4286642 0 0 0 1.90625,0.6876 c 2.129606,-1.0523 4.170938,-1.9392 6.125,-2.6563 1.905364,-0.6907 3.65305,-1 5.21875,-1 1.793293,0 2.856948,0.4044 3.46875,1 a 1.4286642,1.4286642 0 0 0 0.03125,0 c 0.719844,0.683 0.999982,1.4219 1,2.5625 -2.1e-5,0.8645 -0.07047,1.5748 -0.21875,2.0938 -0.152365,0.5333 -0.412842,1.0855 -0.78125,1.625 -0.0085,0.012 -0.02258,0.019 -0.03125,0.031 -0.368614,0.5053 -0.913973,1.078 -1.59375,1.6875 -0.717173,0.643 -1.54821,1.366 -2.59375,2.1875 -1.258927,0.9967 -2.356729,2.0227 -3.28125,3 l -0.03125,0 c -0.933561,0.9636 -1.72646,1.965 -2.34375,3.0312 -0.594186,1.047 -1.032927,2.1569 -1.34375,3.3438 a 1.4286642,1.4286642 0 0 0 0,0.031 c -0.282947,1.1601 -0.468761,2.4647 -0.46875,3.875 l 0,2.8126 a 1.4286642,1.4286642 0 0 0 1.4375,1.4374 l 10.09375,0 a 1.4286642,1.4286642 0 0 0 1.4375,-1.4374 l 0,-2.2813 c -1.8e-5,-0.7451 0.05868,-1.3326 0.15625,-1.7813 0.1076,-0.4099 0.296752,-0.8144 0.59375,-1.25 0.314999,-0.4621 0.756031,-0.9887 1.34375,-1.5312 0.638288,-0.591 1.50772,-1.3276 2.5625,-2.1562 a 1.4286642,1.4286642 0 0 0 0.03125,0 c 1.424816,-1.1401 2.667242,-2.2201 3.75,-3.25 1.141068,-1.0867 2.056092,-2.1984 2.8125,-3.375 0.786035,-1.2072 1.413994,-2.5117 1.8125,-3.9063 a 1.4286642,1.4286642 0 0 0 0,-0.031 c 0.399068,-1.4251 0.593714,-2.9789 0.59375,-4.6874 -3.7e-5,-2.364 -0.457018,-4.521 -1.34375,-6.4376 l 0.03125,0 c -0.847448,-1.8925 -2.095877,-3.5367 -3.71875,-4.875 -1.627461,-1.3418 -3.578229,-2.3147 -5.8125,-2.9687 -2.241816,-0.6834 -4.717221,-1.0312 -7.4375,-1.0313 z m -1.375,44.7188 c -1.058157,10e-5 -2.087412,0.1404 -3.0625,0.4062 -0.970888,0.2733 -1.897213,0.7164 -2.6875,1.375 -0.816356,0.6803 -1.419455,1.5627 -1.84375,2.5626 a 1.4286642,1.4286642 0 0 0 0,0.031 c -0.423623,1.0429 -0.62501,2.2308 -0.625,3.5625 -10e-6,1.2867 0.207901,2.442 0.625,3.4687 a 1.4286642,1.4286642 0 0 0 0,0.031 c 0.424023,0.9691 1.021385,1.8392 1.8125,2.5313 0.788635,0.6901 1.719541,1.1619 2.6875,1.4374 0.0088,0 0.02247,-0 0.03125,0 0.954637,0.2867 1.977685,0.4688 3.0625,0.4688 1.031537,0 1.98392,-0.1866 2.875,-0.4688 0.01888,-0.01 0.04368,0.01 0.0625,0 l 0,-0.031 c 0.953296,-0.2765 1.878432,-0.7255 2.65625,-1.4062 0.791228,-0.6921 1.38847,-1.5622 1.8125,-2.5313 0.455793,-1.0419 0.656225,-2.2085 0.65625,-3.5 -2.5e-5,-1.3362 -0.19314,-2.535 -0.65625,-3.5937 -0.42432,-0.9999 -1.027442,-1.8823 -1.84375,-2.5626 -0.782946,-0.6524 -1.695026,-1.1012 -2.65625,-1.375 -0.0097,-0 -0.02153,0 -0.03125,0 -0.91227,-0.2615 -1.871808,-0.4061 -2.875,-0.4062 z"
         id="path3954"
         style="font-size:78.2667923px;font-style:normal;font-variant:normal;font-weight:bold;font-stretch:normal;line-height:125%;letter-spacing:0px;word-spacing:0px;fill:#000000;fill-opacity:0.72602737;stroke:none;filter:url(#filter3964);font-family:Droid Sans;-inkscape-font-specification:Droid Sans Bold"
         inkscape:original="M 36.15625 1006.9688 C 34.780451 1006.9688 33.364224 1007.0891 31.9375 1007.3438 C 30.51075 1007.5987 29.088751 1007.9476 27.6875 1008.4062 C 26.311709 1008.8394 24.986845 1009.3516 23.6875 1009.9375 C 22.413623 1010.4981 21.220529 1011.1131 20.125 1011.75 L 24.03125 1020.1875 C 26.196828 1019.1175 28.26852 1018.2074 30.28125 1017.4688 C 32.319434 1016.7299 34.242039 1016.375 36 1016.375 C 38.012701 1016.375 39.500586 1016.8387 40.46875 1017.7812 C 41.462349 1018.7239 41.937477 1019.9228 41.9375 1021.375 C 41.937477 1022.3177 41.860047 1023.1617 41.65625 1023.875 C 41.452408 1024.5885 41.114822 1025.2751 40.65625 1025.9375 C 40.197634 1026.5745 39.582576 1027.2126 38.84375 1027.875 C 38.104884 1028.5374 37.226286 1029.2843 36.15625 1030.125 C 34.933316 1031.0932 33.86622 1032.0514 33 1032.9688 C 32.133753 1033.8603 31.435492 1034.7819 30.875 1035.75 C 30.339962 1036.6927 29.936492 1037.6799 29.65625 1038.75 C 29.401465 1039.7946 29.24999 1040.9819 29.25 1042.2812 L 29.25 1045.0938 L 39.34375 1045.0938 L 39.34375 1042.8125 C 39.34373 1041.9972 39.403842 1041.3047 39.53125 1040.7188 C 39.684094 1040.1073 39.961567 1039.5293 40.34375 1038.9688 C 40.725891 1038.4081 41.243813 1037.799 41.90625 1037.1875 C 42.594118 1036.5506 43.492422 1035.8095 44.5625 1034.9688 C 45.963734 1033.8476 47.174145 1032.8062 48.21875 1031.8125 C 49.288774 1030.7935 50.155827 1029.7576 50.84375 1028.6875 C 51.557087 1027.592 52.112032 1026.4046 52.46875 1025.1562 C 52.825401 1023.8825 52.999966 1022.4488 53 1020.8438 C 52.999966 1018.6527 52.602268 1016.707 51.8125 1015 C 51.048144 1013.293 49.952185 1011.8225 48.5 1010.625 C 47.047757 1009.4276 45.276627 1008.549 43.1875 1007.9375 C 41.098326 1007.3006 38.754933 1006.9688 36.15625 1006.9688 z M 34.78125 1051.6875 C 33.838569 1051.6876 32.934493 1051.802 32.09375 1052.0312 C 31.278459 1052.2607 30.548948 1052.6154 29.9375 1053.125 C 29.32603 1053.6345 28.856675 1054.3157 28.5 1055.1562 C 28.168784 1055.9716 27.999991 1056.9901 28 1058.1875 C 27.999991 1059.334 28.168784 1060.3097 28.5 1061.125 C 28.856675 1061.9402 29.32603 1062.6213 29.9375 1063.1562 C 30.548948 1063.6913 31.278459 1064.052 32.09375 1064.2812 C 32.934493 1064.5361 33.838569 1064.6875 34.78125 1064.6875 C 35.672945 1064.6875 36.491431 1064.5361 37.28125 1064.2812 C 38.09651 1064.052 38.826021 1063.6914 39.4375 1063.1562 C 40.048939 1062.6214 40.518294 1061.9402 40.875 1061.125 C 41.231663 1060.3097 41.406228 1059.334 41.40625 1058.1875 C 41.406228 1056.9901 41.231663 1055.9716 40.875 1055.1562 C 40.518294 1054.3157 40.048939 1053.6345 39.4375 1053.125 C 38.826021 1052.6154 38.09651 1052.2606 37.28125 1052.0312 C 36.491431 1051.8021 35.672945 1051.6876 34.78125 1051.6875 z "
         inkscape:radius="1.4285214"
         sodipodi:type="inkscape:offset" />
      <path
         d="m 29.621957,1044.7516 0,-2.828 c -10e-6,-1.2994 0.127377,-2.4713 0.382162,-3.5159 0.280242,-1.0701 0.687881,-2.0764 1.222919,-3.0191 0.560492,-0.9681 1.27386,-1.8981 2.140107,-2.7898 0.86622,-0.9172 1.910795,-1.8598 3.133729,-2.828 1.070036,-0.8407 1.974485,-1.5923 2.713351,-2.2547 0.738826,-0.6624 1.337546,-1.3121 1.796162,-1.9491 0.458572,-0.6624 0.789779,-1.3502 0.993621,-2.0637 0.203797,-0.7133 0.305707,-1.5413 0.30573,-2.484 -2.3e-5,-1.4522 -0.496833,-2.6496 -1.490432,-3.5922 -0.968164,-0.9426 -2.458595,-1.414 -4.471296,-1.414 -1.757961,0 -3.656031,0.3694 -5.694215,1.1082 -2.01273,0.7388 -4.10188,1.6433 -6.267458,2.7133 l -3.898053,-8.4457 c 1.095529,-0.6369 2.28023,-1.2356 3.554107,-1.7962 1.299345,-0.5859 2.636911,-1.0954 4.012702,-1.5286 1.401251,-0.4586 2.815249,-0.8152 4.241999,-1.0701 1.426724,-0.2547 2.827983,-0.3821 4.203782,-0.3821 2.598683,0 4.942608,0.3185 7.031782,0.9554 2.089127,0.6115 3.85981,1.5159 5.312053,2.7133 1.452185,1.1975 2.560454,2.6497 3.32481,4.3567 0.789768,1.707 1.184669,3.656 1.184703,5.847 -3.4e-5,1.6051 -0.178376,3.0446 -0.535027,4.3184 -0.356718,1.2484 -0.891744,2.4204 -1.605081,3.5159 -0.687923,1.0701 -1.566894,2.1147 -2.636918,3.1337 -1.044605,0.9937 -2.267522,2.051 -3.668756,3.172 -1.070078,0.8408 -1.94905,1.5796 -2.636918,2.2165 -0.662437,0.6115 -1.184724,1.1975 -1.566865,1.758 -0.382183,0.5605 -0.649696,1.1465 -0.80254,1.7579 -0.127408,0.586 -0.191101,1.2866 -0.191081,2.1019 l 0,2.293 -10.089079,0 m -1.261135,13.0699 c -9e-6,-1.1974 0.165595,-2.2038 0.496811,-3.0191 0.356675,-0.8407 0.840746,-1.5159 1.452216,-2.0254 0.611448,-0.5096 1.324816,-0.879 2.140107,-1.1083 0.840743,-0.2293 1.732454,-0.3439 2.675135,-0.344 0.891695,1e-4 1.732451,0.1147 2.52227,0.344 0.81526,0.2293 1.528628,0.5987 2.140107,1.1083 0.611439,0.5095 1.09551,1.1847 1.452216,2.0254 0.356663,0.8153 0.535005,1.8217 0.535027,3.0191 -2.2e-5,1.1465 -0.178364,2.1274 -0.535027,2.9427 -0.356706,0.8152 -0.840777,1.4904 -1.452216,2.0254 -0.611479,0.535 -1.324847,0.9172 -2.140107,1.1465 -0.789819,0.2548 -1.630575,0.3822 -2.52227,0.3822 -0.942681,0 -1.834392,-0.1274 -2.675135,-0.3822 -0.815291,-0.2293 -1.528659,-0.6115 -2.140107,-1.1465 -0.61147,-0.535 -1.095541,-1.2102 -1.452216,-2.0254 -0.331216,-0.8153 -0.49682,-1.7962 -0.496811,-2.9427"
         id="path3890"
         inkscape:connector-curvature="0"
         style="font-size:78.2667923px;font-style:normal;font-variant:normal;font-weight:bold;font-stretch:normal;line-height:125%;letter-spacing:0px;word-spacing:0px;fill:#ffffff;fill-opacity:1;stroke:none;font-family:Droid Sans;-inkscape-font-specification:Droid Sans Bold" />
    </g>
  </g>
</svg>
