<?xml version="1.0" encoding="UTF-8" standalone="no"?>
<!-- Created with Inkscape (http://www.inkscape.org/) -->

<svg
   xmlns:dc="http://purl.org/dc/elements/1.1/"
   xmlns:cc="http://creativecommons.org/ns#"
   xmlns:rdf="http://www.w3.org/1999/02/22-rdf-syntax-ns#"
   xmlns:svg="http://www.w3.org/2000/svg"
   xmlns="http://www.w3.org/2000/svg"
   xmlns:xlink="http://www.w3.org/1999/xlink"
   xmlns:sodipodi="http://sodipodi.sourceforge.net/DTD/sodipodi-0.dtd"
   xmlns:inkscape="http://www.inkscape.org/namespaces/inkscape"
   width="744.09448819"
   height="1052.3622047"
   id="svg6959"
   version="1.1"
   inkscape:version="0.48.2 r9819"
   sodipodi:docname="promo.svg">
  <defs
     id="defs6961">
    <linearGradient
       id="linearGradient7708">
      <stop
         style="stop-color:#c0c0c0;stop-opacity:0.63846153;"
         offset="0"
         id="stop7710" />
      <stop
         style="stop-color:#acacac;stop-opacity:0;"
         offset="1"
         id="stop7712" />
    </linearGradient>
    <linearGradient
       gradientTransform="matrix(0.65316502,0,0,0.65316502,-38.414466,-92.87832)"
       inkscape:collect="always"
       xlink:href="#linearGradient6916"
       id="linearGradient6922"
       x1="248.59996"
       y1="539.09204"
       x2="321.1351"
       y2="535.05139"
       gradientUnits="userSpaceOnUse" />
    <linearGradient
       id="linearGradient6916">
      <stop
         style="stop-color:#000000;stop-opacity:0;"
         offset="0"
         id="stop6918" />
      <stop
         style="stop-color:#000000;stop-opacity:0.25384617;"
         offset="1"
         id="stop6920" />
    </linearGradient>
    <filter
       color-interpolation-filters="sRGB"
       inkscape:collect="always"
       id="filter6903">
      <feGaussianBlur
         inkscape:collect="always"
         stdDeviation="1.0873942"
         id="feGaussianBlur6905" />
    </filter>
    <filter
       color-interpolation-filters="sRGB"
       inkscape:collect="always"
       id="filter5474"
       x="-0.25834197"
       width="1.5166839"
       y="-0.59357142"
       height="2.1871428">
      <feGaussianBlur
         inkscape:collect="always"
         stdDeviation="2.9678571"
         id="feGaussianBlur5476" />
    </filter>
    <filter
       color-interpolation-filters="sRGB"
       inkscape:collect="always"
       id="filter5357">
      <feGaussianBlur
         inkscape:collect="always"
         stdDeviation="0.6727616"
         id="feGaussianBlur5359" />
    </filter>
    <linearGradient
       id="linearGradient5295">
      <stop
         style="stop-color:#b5b5f1;stop-opacity:1;"
         offset="0"
         id="stop5297" />
      <stop
         style="stop-color:#9e9ebf;stop-opacity:1;"
         offset="1"
         id="stop5299" />
    </linearGradient>
    <linearGradient
       id="linearGradient5189">
      <stop
         style="stop-color:#e7e7ff;stop-opacity:1;"
         offset="0"
         id="stop5191" />
      <stop
         style="stop-color:#a4a4ff;stop-opacity:1;"
         offset="1"
         id="stop5193" />
    </linearGradient>
    <filter
       color-interpolation-filters="sRGB"
       inkscape:collect="always"
       id="filter5335"
       x="-0.42441374"
       width="1.8488275"
       y="-0.074199706"
       height="1.1483994">
      <feGaussianBlur
         inkscape:collect="always"
         stdDeviation="3.4998342"
         id="feGaussianBlur5337" />
    </filter>
    <filter
       color-interpolation-filters="sRGB"
       inkscape:collect="always"
       id="filter5486"
       x="-0.39731783"
       width="1.7946357"
       y="-0.1207098"
       height="1.2414196">
      <feGaussianBlur
         inkscape:collect="always"
         stdDeviation="2.9602638"
         id="feGaussianBlur5488" />
    </filter>
    <filter
       color-interpolation-filters="sRGB"
       inkscape:collect="always"
       id="filter5247"
       x="-0.21570764"
       width="1.4314153"
       y="-0.027374189"
       height="1.0547484">
      <feGaussianBlur
         inkscape:collect="always"
         stdDeviation="0.57681329"
         id="feGaussianBlur5249" />
    </filter>
    <filter
       color-interpolation-filters="sRGB"
       inkscape:collect="always"
       id="filter5518"
       x="-0.19168024"
       width="1.3833605"
       y="-0.053785123"
       height="1.1075702">
      <feGaussianBlur
         inkscape:collect="always"
         stdDeviation="1.1333294"
         id="feGaussianBlur5520" />
    </filter>
    <filter
       color-interpolation-filters="sRGB"
       inkscape:collect="always"
       id="filter5267"
       x="-0.26178083"
       width="1.5235616"
       y="-0.059653971"
       height="1.1193079">
      <feGaussianBlur
         inkscape:collect="always"
         stdDeviation="1.1220626"
         id="feGaussianBlur5269" />
    </filter>
    <filter
       color-interpolation-filters="sRGB"
       inkscape:collect="always"
       id="filter5281"
       x="-0.094577216"
       width="1.1891544"
       y="-0.48672667"
       height="1.9734533">
      <feGaussianBlur
         inkscape:collect="always"
         stdDeviation="1.463695"
         id="feGaussianBlur5283" />
    </filter>
    <filter
       color-interpolation-filters="sRGB"
       inkscape:collect="always"
       id="filter5291"
       x="-0.32062498"
       width="1.64125"
       y="-0.19177569"
       height="1.3835514">
      <feGaussianBlur
         inkscape:collect="always"
         stdDeviation="2.4428572"
         id="feGaussianBlur5293" />
    </filter>
    <filter
       color-interpolation-filters="sRGB"
       inkscape:collect="always"
       id="filter5388"
       x="-0.36122096"
       width="1.7224419"
       y="-0.07195136"
       height="1.1439027">
      <feGaussianBlur
         inkscape:collect="always"
         stdDeviation="0.90852323"
         id="feGaussianBlur5390" />
    </filter>
    <radialGradient
       inkscape:collect="always"
       xlink:href="#linearGradient5189"
       id="radialGradient7190"
       gradientUnits="userSpaceOnUse"
       gradientTransform="matrix(0.49393992,0,0,0.71616173,159.48136,99.3459)"
       cx="19.767445"
       cy="230.14432"
       fx="19.767445"
       fy="230.14432"
       r="41.868568" />
    <linearGradient
       inkscape:collect="always"
       xlink:href="#linearGradient5295"
       id="linearGradient7193"
       gradientUnits="userSpaceOnUse"
       gradientTransform="matrix(0.49393992,0,0,0.49393992,159.48136,154.40504)"
       x1="32.785713"
       y1="189.01443"
       x2="31.499998"
       y2="194.72871" />
    <linearGradient
       inkscape:collect="always"
       xlink:href="#linearGradient7708"
       id="linearGradient7714"
       x1="145.96704"
       y1="302.82898"
       x2="143.44165"
       y2="249.79597"
       gradientUnits="userSpaceOnUse"
       gradientTransform="matrix(1.2035398,0,0,1,-27.613815,2.020305)" />
  </defs>
  <sodipodi:namedview
     id="base"
     pagecolor="#ffffff"
     bordercolor="#666666"
     borderopacity="1.0"
     inkscape:pageopacity="0.0"
     inkscape:pageshadow="2"
     inkscape:zoom="1.979899"
     inkscape:cx="244.87608"
     inkscape:cy="780.31688"
     inkscape:document-units="px"
     inkscape:current-layer="layer3"
     showgrid="false"
     inkscape:window-width="1534"
     inkscape:window-height="876"
     inkscape:window-x="66"
     inkscape:window-y="24"
     inkscape:window-maximized="1" />
  <metadata
     id="metadata6964">
    <rdf:RDF>
      <cc:Work
         rdf:about="">
        <dc:format>image/svg+xml</dc:format>
        <dc:type
           rdf:resource="http://purl.org/dc/dcmitype/StillImage" />
        <dc:title></dc:title>
      </cc:Work>
    </rdf:RDF>
  </metadata>
  <g
     inkscape:groupmode="layer"
     id="layer3"
     inkscape:label="background">
    <rect
       style="fill:#000000;fill-opacity:1;fill-rule:evenodd;stroke:none"
       id="rect7719"
       width="140.91628"
       height="112.12693"
       x="85.862968"
       y="202.31882"
       ry="0"
       inkscape:export-filename="/home/alump/Development/bttagwriter/res/drawable-hdpi/start.png"
       inkscape:export-xdpi="191.83623"
       inkscape:export-ydpi="191.83623" />
  </g>
  <g
     inkscape:label="Layer 1"
     inkscape:groupmode="layer"
     id="layer1"
     sodipodi:insensitive="true">
    <rect
       style="fill:url(#linearGradient7714);fill-opacity:1;fill-rule:evenodd;stroke:none"
       id="rect7706"
       width="137.38075"
       height="73.741135"
       x="87.88327"
       y="239.69444"
       ry="13.571428" />
    <path
       style="fill:#000000;fill-opacity:0.27397263;fill-rule:evenodd;stroke:none;filter:url(#filter6903)"
       d="m 265.40625,910.125 c -8.10463,0.70022 -10.06747,10.64331 -7.90391,17.1205 4.11251,28.40564 7.11953,57.04893 11.87266,85.317 2.48715,7.9791 10.56785,13.3558 18.96631,11.9998 20.13043,0.3343 40.36456,1.8135 60.43994,1.5315 8.57767,-2.7567 7.15352,-13.8318 5.44158,-20.6022 -3.97029,-23.77765 -7.1052,-47.76973 -11.53533,-71.4291 -2.20851,-7.52682 -9.39723,-12.69064 -17.26373,-12.68142 -19.85426,-3.62557 -39.60106,-8.22192 -59.51752,-11.28733 l -0.5,0.0312 z"
       id="path6895"
       inkscape:connector-curvature="0"
       transform="matrix(0.6367583,0,0,0.64203406,-56.019576,-361.09735)" />
    <path
       inkscape:connector-curvature="0"
       id="rect6152"
       d="m 114.94233,223.33953 c 0,0 40.96705,7.98579 40.96705,7.98579 3.19905,0.62365 6.2583,4.42657 6.90759,8.54895 0,0 7.73027,49.07993 7.73027,49.07993 0.67936,4.3133 -1.31335,7.71721 -4.51777,7.61649 0,0 -41.16444,-1.29431 -41.16444,-1.29431 -3.99197,-0.12547 -7.79647,-4.20338 -8.46012,-9.12276 0,0 -7.52752,-55.79838 -7.52752,-55.79838 -0.63026,-4.67189 2.10475,-7.78768 6.06494,-7.01571 0,0 0,0 0,0"
       style="fill:#ffffff;fill-opacity:1;fill-rule:evenodd;stroke:#d7d7d7;stroke-width:0.50069016;stroke-linecap:round;stroke-miterlimit:4;stroke-opacity:1" />
    <path
       inkscape:connector-curvature="0"
       id="rect6154"
       d="m 116.96881,226.20738 c 0,0 38.11663,7.21402 38.11663,7.21402 2.99807,0.5674 5.86495,4.11565 6.4703,7.97481 0,0 7.19653,45.8787 7.19653,45.8787 0.63152,4.02598 -1.24279,7.1888 -4.24605,7.07757 0,0 -38.2863,-1.41763 -38.2863,-1.41763 -3.68407,-0.13638 -7.1957,-3.92291 -7.81368,-8.47195 0,0 -7.02278,-51.69728 -7.02278,-51.69728 -0.58912,-4.33676 1.92769,-7.25053 5.58535,-6.55824 0,0 0,0 0,0"
       style="fill:none;stroke:#d4d4d4;stroke-width:0.50069016;stroke-linecap:round;stroke-miterlimit:4;stroke-opacity:1" />
    <path
       inkscape:connector-curvature="0"
       id="rect6156"
       d="m 118.679,228.65897 c 0,0 35.53848,6.55197 35.53848,6.55197 2.81377,0.51874 5.504,3.83493 6.0691,7.45202 0,0 6.70899,42.94285 6.70899,42.94285 0.58793,3.76328 -1.17721,6.70657 -3.99596,6.58698 0,0 -35.6855,-1.51384 -35.6855,-1.51384 -3.40967,-0.14462 -6.65991,-3.66818 -7.23607,-7.88463 0,0 -6.55885,-47.99945 -6.55885,-47.99945 -0.55114,-4.03342 1.77231,-6.76045 5.15981,-6.1359 0,0 0,0 0,0"
       style="fill:none;stroke:#d4d4d4;stroke-width:0.50069016;stroke-linecap:round;stroke-miterlimit:4;stroke-opacity:1" />
    <path
       inkscape:connector-curvature="0"
       id="rect6158"
       d="m 120.26297,230.92957 c 0,0 33.14107,5.9585 33.14107,5.9585 2.64011,0.47465 5.16395,3.57399 5.69152,6.96365 0,0 6.25544,40.19145 6.25544,40.19145 0.5475,3.5177 -1.11397,6.25746 -3.75881,6.13205 0,0 -33.26854,-1.57772 -33.26854,-1.57772 -3.158,-0.1497 -6.16849,-3.42951 -6.70574,-7.34007 0,0 -6.12556,-44.58771 -6.12556,-44.58771 -0.51555,-3.75263 1.63126,-6.30455 4.77062,-5.74015 0,0 0,0 0,0"
       style="fill:none;stroke:#d4d4d4;stroke-width:0.50069016;stroke-linecap:round;stroke-miterlimit:4;stroke-opacity:1" />
    <path
       inkscape:connector-curvature="0"
       id="rect6160"
       d="m 121.74162,233.04922 c 0,0 30.89464,5.42186 30.89464,5.42186 2.47539,0.43442 4.84146,3.32957 5.33377,6.50402 0,0 5.83035,37.5948 5.83035,37.5948 0.50968,3.28646 -1.05274,5.83603 -3.53256,5.70684 0,0 -31.00513,-1.61522 -31.00513,-1.61522 -2.9252,-0.15245 -5.71389,-3.20456 -6.21465,-6.83144 0,0 -5.718,-41.41426 -5.718,-41.41426 -0.48195,-3.49064 1.50208,-5.87718 4.41158,-5.36653 0,0 0,0 0,0"
       style="fill:none;stroke:#d4d4d4;stroke-width:0.50069016;stroke-linecap:round;stroke-miterlimit:4;stroke-opacity:1" />
    <path
       inkscape:connector-curvature="0"
       id="rect6162"
       d="m 123.2131,235.15862 c 0,0 28.65087,4.90462 28.65087,4.90462 2.30892,0.39529 4.51558,3.08568 4.97258,6.04314 0,0 5.40571,34.98305 5.40571,34.98305 0.47199,3.05446 -0.98961,5.41461 -3.30262,5.28339 0,0 -28.74568,-1.63141 -28.74568,-1.63141 -2.69553,-0.15297 -5.26543,-2.97843 -5.72974,-6.32485 0,0 -5.3095,-38.26704 -5.3095,-38.26704 -0.44817,-3.2301 1.37592,-5.45014 4.05838,-4.9909 0,0 0,0 0,0"
       style="fill:none;stroke:#d4d4d4;stroke-width:0.50069016;stroke-linecap:round;stroke-miterlimit:4;stroke-opacity:1" />
    <path
       inkscape:connector-curvature="0"
       id="rect6164"
       d="m 124.60885,237.42569 c 0,0 26.28222,4.3747 26.28222,4.3747 2.13106,0.35474 4.16719,2.82697 4.58651,5.5523 0,0 4.95355,32.19515 4.95355,32.19515 0.43196,2.80749 -0.92151,4.9677 -3.05629,4.83629 0,0 -26.36211,-1.62273 -26.36211,-1.62273 -2.45613,-0.15114 -4.79761,-2.73701 -5.22306,-5.78918 0,0 -4.87263,-34.95596 -4.87263,-34.95596 -0.41193,-2.95518 1.24633,-4.99762 3.69181,-4.59057 0,0 0,0 0,0"
       style="fill:none;stroke:#d4d4d4;stroke-width:0.50069016;stroke-linecap:round;stroke-miterlimit:4;stroke-opacity:1" />
    <path
       inkscape:connector-curvature="0"
       id="rect6171"
       d="m 126.11699,239.70406 c 0,0 23.8964,3.86412 23.8964,3.86412 1.9496,0.31522 3.81205,2.56747 4.19358,5.05733 0,0 4.50138,29.37603 4.50138,29.37603 0.39201,2.55825 -0.85007,4.51845 -2.80298,4.38887 0,0 -23.96238,-1.58981 -23.96238,-1.58981 -2.21816,-0.14716 -4.33285,-2.49331 -4.71947,-5.25326 0,0 -4.43466,-31.65728 -4.43466,-31.65728 -0.37548,-2.68032 1.11847,-4.54335 3.32813,-4.186 0,0 0,0 0,0"
       style="fill:none;stroke:#d4d4d4;stroke-width:0.50069016;stroke-linecap:round;stroke-miterlimit:4;stroke-opacity:1" />
    <path
       sodipodi:nodetypes="ccccc"
       inkscape:connector-curvature="0"
       id="path6173"
       d="m 123.84675,241.71372 c 0,0 -11.31989,-15.91287 -11.31989,-15.91287 0,0 2.75379,-0.87073 2.75379,-0.87073 0,0 10.73327,17.39927 10.73327,17.39927 0,0 -2.16717,-0.61567 -2.16717,-0.61567"
       style="fill:#ffffff;fill-opacity:1;stroke:none" />
    <path
       sodipodi:nodetypes="cc"
       inkscape:connector-curvature="0"
       id="path6187"
       d="m 124.78957,239.77937 c 0,0 1.04552,7.81512 1.04552,7.81512"
       style="fill:none;stroke:#c8c8c8;stroke-width:0.50069016px;stroke-linecap:butt;stroke-linejoin:miter;stroke-opacity:1" />
    <path
       sodipodi:nodetypes="cc"
       inkscape:connector-curvature="0"
       id="path6175"
       d="m 116.06929,225.91281 c 0,0 -1.94387,4.52584 -1.94387,4.52584"
       style="fill:none;stroke:#c9c9c9;stroke-width:0.50069016px;stroke-linecap:butt;stroke-linejoin:miter;stroke-opacity:1" />
    <path
       style="fill:none;stroke:#c9c9c9;stroke-width:0.50069016px;stroke-linecap:butt;stroke-linejoin:miter;stroke-opacity:1"
       d="m 117.7608,228.30914 c 0,0 -1.88409,4.40207 -1.88409,4.40207"
       id="path6177"
       inkscape:connector-curvature="0" />
    <path
       sodipodi:nodetypes="cc"
       inkscape:connector-curvature="0"
       id="path6179"
       d="m 119.1438,230.64048 c 0,0 -1.83314,5.54256 -1.83314,5.54256"
       style="fill:none;stroke:#c9c9c9;stroke-width:0.50069016px;stroke-linecap:butt;stroke-linejoin:miter;stroke-opacity:1" />
    <path
       sodipodi:nodetypes="cc"
       style="fill:none;stroke:#c9c9c9;stroke-width:0.50069016px;stroke-linecap:butt;stroke-linejoin:miter;stroke-opacity:1"
       d="m 120.26278,232.78031 c 0,0 -1.23447,5.50997 -1.23447,5.50997"
       id="path6181"
       inkscape:connector-curvature="0" />
    <path
       sodipodi:nodetypes="cc"
       inkscape:connector-curvature="0"
       id="path6183"
       d="m 121.7973,234.98697 c 0,0 -0.9397,5.41885 -0.9397,5.41885"
       style="fill:none;stroke:#c9c9c9;stroke-width:0.50069016px;stroke-linecap:butt;stroke-linejoin:miter;stroke-opacity:1" />
    <path
       sodipodi:nodetypes="cc"
       style="fill:none;stroke:#c9c9c9;stroke-width:0.50069016px;stroke-linecap:butt;stroke-linejoin:miter;stroke-opacity:1"
       d="m 123.26621,237.17474 c 0,0 -0.70976,4.47719 -0.70976,4.47719"
       id="path6185"
       inkscape:connector-curvature="0" />
    <path
       sodipodi:nodetypes="cccccccccc"
       inkscape:connector-curvature="0"
       id="path6166"
       d="m 111.19279,229.35048 c 0.59741,0.81267 12.65833,14.87616 12.65833,14.87616 0,0 0.72427,5.15432 0.72427,5.15432 0,0 5.63906,0.78119 5.63906,0.78119 0,0 -0.46485,-3.25342 -0.46485,-3.25342 0,0 -4.80587,-0.70196 -4.80587,-0.70196 0,0 -0.30149,-2.14029 -0.30149,-2.14029 0,0 0.50916,-1.31521 0.50916,-1.31521 0,0 -11.59727,-16.47772 -11.59727,-16.47772 0,0 -2.36134,3.07693 -2.36134,3.07693"
       style="fill:#d0d0d0;fill-opacity:1;stroke:none" />
    <path
       style="fill:url(#linearGradient6922);fill-opacity:1;fill-rule:evenodd;stroke:none"
       d="m 114.94233,223.33953 c 0,0 40.96705,7.98579 40.96705,7.98579 3.19905,0.62365 6.2583,4.42657 6.90759,8.54895 0,0 7.73027,49.07993 7.73027,49.07993 0.67936,4.3133 -1.31335,7.71721 -4.51777,7.61649 0,0 -41.16444,-1.29431 -41.16444,-1.29431 -3.99197,-0.12547 -7.79647,-4.20338 -8.46012,-9.12276 0,0 -7.52752,-55.79838 -7.52752,-55.79838 -0.63026,-4.67189 2.10475,-7.78768 6.06494,-7.01571 0,0 0,0 0,0"
       id="path6914"
       inkscape:connector-curvature="0" />
    <path
       transform="matrix(1.0593784,0,0,1.0593784,137.15216,224.8933)"
       d="m 53.428571,75.285713 a 13.785714,6 0 1 1 -27.571429,0 13.785714,6 0 1 1 27.571429,0 z"
       sodipodi:ry="6"
       sodipodi:rx="13.785714"
       sodipodi:cy="75.285713"
       sodipodi:cx="39.642857"
       id="path6189"
       style="fill:#000000;fill-opacity:0.30593609;fill-rule:evenodd;stroke:none;filter:url(#filter5474)"
       sodipodi:type="arc" />
    <path
       style="fill:#6a6a98;fill-opacity:1;stroke:#5d618c;stroke-width:0.72192556;stroke-linecap:butt;stroke-linejoin:miter;stroke-miterlimit:4;stroke-opacity:1;stroke-dasharray:none"
       d="m 178.25107,280.28915 c 0.039,22.17735 5.8453,26.90536 10.01992,-0.42338"
       id="path6191"
       inkscape:connector-curvature="0"
       sodipodi:nodetypes="cc" />
    <path
       transform="matrix(0.49393987,0,0,0.49393987,68.878664,234.28218)"
       style="fill:#000000;fill-opacity:0.13242008;stroke:none;filter:url(#filter5357)"
       d="m 227.06716,128.88272 10.30356,-35.759396 -2.6264,-10.90965 -16.76853,17.37463 0.80812,26.870046 z"
       id="path6193"
       inkscape:connector-curvature="0"
       sodipodi:nodetypes="cccccc" />
    <path
       style="fill:url(#linearGradient7193);fill-opacity:1;stroke:#9498d9;stroke-width:0.72192556;stroke-linecap:butt;stroke-linejoin:miter;stroke-miterlimit:4;stroke-opacity:1;stroke-dasharray:none"
       d="m 168.79565,251.07614 c 3.92651,-6.87405 10.6944,-7.75188 16.5117,0"
       id="path6195"
       inkscape:connector-curvature="0"
       sodipodi:nodetypes="cc" />
    <path
       style="fill:url(#radialGradient7190);fill-opacity:1;stroke:#969ce2;stroke-width:0.72192556;stroke-linecap:butt;stroke-linejoin:miter;stroke-miterlimit:4;stroke-opacity:1;stroke-dasharray:none"
       d="m 170.25878,301.1358 c -8.33475,-3.12134 -10.99403,-15.32876 -10.55365,-30.21953 -5.33466,-11.88422 -1.48216,-22.2886 2.1712,-23.26841 6.19526,0.38423 7.71148,1.70424 10.37826,2.79416 2.69411,-1.46507 5.7165,-0.96053 8.78161,-0.19959 2.12708,-1.13185 3.31648,-2.73255 6.78578,-3.19331 9.82329,0.81448 10.0642,18.70035 7.18495,26.74397 0.2661,4.92302 0.53222,9.84604 0.7983,14.76906 -2.15649,12.85895 -5.86423,14.34202 -9.57991,15.76696 -0.22251,-8.05744 0.5035,-15.79871 -1.79624,-24.54857 -7.83946,12.70842 -3.11122,25.49115 -4.78995,26.74397 -3.71077,-2.5452 -6.66904,-5.35585 -9.27348,-14.1703 -0.28088,-5.71435 -0.50603,-7.91454 -0.9052,-13.77116 -5.28186,19.81659 5.37199,19.34108 0.79833,22.55275 z"
       id="path6197"
       inkscape:connector-curvature="0"
       sodipodi:nodetypes="cccccccccccccc" />
    <path
       style="fill:none;stroke:#9393d7;stroke-width:0.72192556;stroke-linecap:round;stroke-linejoin:miter;stroke-miterlimit:4;stroke-opacity:1;stroke-dasharray:none"
       d="m 166.67875,252.91076 c 6.49179,-3.72836 12.98357,-5.28001 19.47536,0.70563"
       id="path6199"
       inkscape:connector-curvature="0"
       sodipodi:nodetypes="cc" />
    <path
       transform="matrix(0.49393987,0,0,0.49393987,68.878664,234.28218)"
       style="fill:#000000;fill-opacity:0.20547946;stroke:none;filter:url(#filter5335)"
       d="m 238,28.857134 c 10.72648,15.61841 8.90467,28.02044 5.42857,50.57144 5.48115,17.66209 3.63685,39.585656 -4.57143,62.571416 14.09316,-6.27451 21.66289,-23.33775 16,-62.285706 9.35844,-37.796 -5.68982,-51.96407 -16.85714,-50.85715 z"
       id="path6201"
       inkscape:connector-curvature="0"
       sodipodi:nodetypes="ccccc" />
    <path
       transform="matrix(0.49393987,0,0,0.49393987,68.878664,234.28218)"
       style="fill:#000000;fill-opacity:0.34246575;stroke:none;filter:url(#filter5486)"
       d="m 223.42857,146.85714 c -6.22264,-5.67696 -10.87395,-55.334826 12.85714,-58.857136 -9.5093,17.520946 -13.16812,38.314566 -12.85714,58.857136 z"
       id="path6203"
       inkscape:connector-curvature="0"
       sodipodi:nodetypes="ccc" />
    <path
       transform="matrix(0.49393987,0,0,0.49393987,68.878664,234.28218)"
       style="fill:#ffffff;fill-opacity:0.20547946;stroke:none;filter:url(#filter5247)"
       d="m 239.42857,137.71428 c 4.29149,-16.75988 5.40809,-33.80318 -3.14286,-50.571426 2.71678,16.857136 4.22384,33.714286 3.14286,50.571426 z"
       id="path6205"
       inkscape:connector-curvature="0"
       sodipodi:nodetypes="ccc" />
    <path
       sodipodi:nodetypes="ccc"
       inkscape:connector-curvature="0"
       id="path6207"
       d="m 23.985213,281.72907 c 15.002263,-13.13356 18.477762,-29.29015 17.780452,-54.26391 -3.392954,24.5622 -6.236121,41.5305 -17.780452,54.26391 z"
       style="fill:#ffffff;fill-opacity:0.57990866;stroke:none;filter:url(#filter5518)"
       transform="matrix(-0.49393987,0,0,0.49393987,191.0176,166.40072)" />
    <path
       transform="matrix(0.49393987,0,0,0.49393987,68.878664,234.28218)"
       style="fill:#000000;fill-opacity:0.20547946;stroke:none;filter:url(#filter5267)"
       d="m 206,134.57142 c -9.49176,-15.6234 -14.34079,-43.025136 -2,-47.142846 -3.93297,6.82791 -2.42615,31.860706 2,47.142846 z"
       id="path6209"
       inkscape:connector-curvature="0"
       sodipodi:nodetypes="ccc" />
    <path
       transform="matrix(0.49393987,0,0,0.49393987,68.878664,234.28218)"
       style="fill:#ffffff;fill-opacity:0.58447487;stroke:none;filter:url(#filter5281)"
       d="m 197.14286,41.714284 c 11.4573,-7.77789 24.76664,-10.34137 37.14285,-2.28572 -15.87293,-6.20615 -25.44268,0.13559 -37.14285,2.28572 z"
       id="path6211"
       inkscape:connector-curvature="0"
       sodipodi:nodetypes="ccc" />
    <path
       sodipodi:type="arc"
       style="fill:#ffffff;fill-opacity:0.58447487;fill-rule:evenodd;stroke:none;filter:url(#filter5291)"
       id="path6213"
       sodipodi:cx="-34.285713"
       sodipodi:cy="237.85715"
       sodipodi:rx="9.1428576"
       sodipodi:ry="15.285714"
       d="m -25.142856,237.85715 a 9.1428576,15.285714 0 1 1 -18.285715,0 9.1428576,15.285714 0 1 1 18.285715,0 z"
       transform="matrix(0.55977346,0,0,0.57068004,186.98124,127.27303)" />
    <path
       transform="matrix(0.49393987,0,0,0.49393987,68.878664,234.28218)"
       style="fill:#000000;fill-opacity:0.13242008;stroke:none;filter:url(#filter5388)"
       d="m 239.18899,45.242094 c 3.40071,9.16838 4.51852,18.98901 0.40406,30.30458 4.48977,-9.45301 8.27178,-18.98466 3.23249,-29.49645 -1.21218,-0.26938 -2.42437,-0.53875 -3.63655,-0.80813 z"
       id="path6215"
       inkscape:connector-curvature="0"
       sodipodi:nodetypes="cccc" />
    <path
       sodipodi:nodetypes="cccc"
       inkscape:connector-curvature="0"
       id="path6217"
       d="m 27.476149,186.99699 c 3.400713,9.16838 4.518519,18.98901 0.404061,30.30458 4.489769,-9.45301 8.271778,-18.98466 3.232489,-29.49645 -1.212183,-0.26938 -2.424367,-0.53875 -3.63655,-0.80813 z"
       style="fill:#000000;fill-opacity:0.0821918;stroke:none;filter:url(#filter5388)"
       transform="matrix(-0.49393987,0,0,0.49393987,179.42741,164.26378)" />
  </g>
</svg>
