<?xml version="1.0" encoding="UTF-8" standalone="no"?>
<!-- Created with Inkscape (http://www.inkscape.org/) -->

<svg
   xmlns:dc="http://purl.org/dc/elements/1.1/"
   xmlns:cc="http://creativecommons.org/ns#"
   xmlns:rdf="http://www.w3.org/1999/02/22-rdf-syntax-ns#"
   xmlns:svg="http://www.w3.org/2000/svg"
   xmlns="http://www.w3.org/2000/svg"
   xmlns:xlink="http://www.w3.org/1999/xlink"
   xmlns:sodipodi="http://sodipodi.sourceforge.net/DTD/sodipodi-0.dtd"
   xmlns:inkscape="http://www.inkscape.org/namespaces/inkscape"
   width="744.09448819"
   height="1052.3622047"
   id="svg3798"
   version="1.1"
   inkscape:version="0.48.2 r9819"
   sodipodi:docname="New document 4">
  <defs
     id="defs3800">
    <linearGradient
       id="linearGradient4485">
      <stop
         style="stop-color:#6e6e6e;stop-opacity:1;"
         offset="0"
         id="stop4487" />
      <stop
         id="stop4493"
         offset="0.5"
         style="stop-color:#adadad;stop-opacity:1;" />
      <stop
         style="stop-color:#767676;stop-opacity:1;"
         offset="1"
         id="stop4489" />
    </linearGradient>
    <linearGradient
       id="linearGradient4446">
      <stop
         style="stop-color:#ffffff;stop-opacity:1;"
         offset="0"
         id="stop4448" />
      <stop
         style="stop-color:#e7e7e7;stop-opacity:1;"
         offset="1"
         id="stop4450" />
    </linearGradient>
    <linearGradient
       id="linearGradient4408">
      <stop
         style="stop-color:#ffffff;stop-opacity:0.56923079;"
         offset="0"
         id="stop4410" />
      <stop
         style="stop-color:#ffffff;stop-opacity:0;"
         offset="1"
         id="stop4412" />
    </linearGradient>
    <linearGradient
       id="linearGradient4398">
      <stop
         style="stop-color:#393939;stop-opacity:1;"
         offset="0"
         id="stop4400" />
      <stop
         style="stop-color:#000000;stop-opacity:1;"
         offset="1"
         id="stop4402" />
    </linearGradient>
    <linearGradient
       id="linearGradient4388">
      <stop
         style="stop-color:#000000;stop-opacity:1;"
         offset="0"
         id="stop4390" />
      <stop
         id="stop4396"
         offset="0.5"
         style="stop-color:#767676;stop-opacity:1;" />
      <stop
         style="stop-color:#000000;stop-opacity:1;"
         offset="1"
         id="stop4392" />
    </linearGradient>
    <linearGradient
       id="linearGradient4329">
      <stop
         style="stop-color:#858585;stop-opacity:1;"
         offset="0"
         id="stop4331" />
      <stop
         id="stop4337"
         offset="0.31058434"
         style="stop-color:#b8b8b8;stop-opacity:1;" />
      <stop
         style="stop-color:#dadada;stop-opacity:1;"
         offset="0.68206793"
         id="stop4339" />
      <stop
         id="stop4341"
         offset="0.92690939"
         style="stop-color:#a7a7a7;stop-opacity:1;" />
      <stop
         style="stop-color:#9d9d9d;stop-opacity:1;"
         offset="1"
         id="stop4333" />
    </linearGradient>
    <linearGradient
       id="linearGradient4321">
      <stop
         style="stop-color:#8d8d8d;stop-opacity:1;"
         offset="0"
         id="stop4323" />
      <stop
         style="stop-color:#d6d6d6;stop-opacity:1;"
         offset="1"
         id="stop4325" />
    </linearGradient>
    <linearGradient
       inkscape:collect="always"
       xlink:href="#linearGradient4321"
       id="linearGradient4327"
       x1="267.09299"
       y1="239.30574"
       x2="337.4068"
       y2="460.32083"
       gradientUnits="userSpaceOnUse"
       gradientTransform="translate(-107.83829,37.069411)" />
    <linearGradient
       inkscape:collect="always"
       xlink:href="#linearGradient4329"
       id="linearGradient4335"
       x1="132.96945"
       y1="321.38107"
       x2="494.94077"
       y2="435.16513"
       gradientUnits="userSpaceOnUse"
       gradientTransform="translate(-107.83829,37.069411)" />
    <filter
       inkscape:collect="always"
       id="filter4376">
      <feGaussianBlur
         inkscape:collect="always"
         stdDeviation="1.6038576"
         id="feGaussianBlur4378" />
    </filter>
    <filter
       inkscape:collect="always"
       id="filter4384">
      <feGaussianBlur
         inkscape:collect="always"
         stdDeviation="0.13643509"
         id="feGaussianBlur4386" />
    </filter>
    <linearGradient
       inkscape:collect="always"
       xlink:href="#linearGradient4388"
       id="linearGradient4394"
       x1="348.78125"
       y1="634.90625"
       x2="551.84375"
       y2="634.90625"
       gradientUnits="userSpaceOnUse"
       gradientTransform="translate(-23.589625,-318.45994)" />
    <linearGradient
       inkscape:collect="always"
       xlink:href="#linearGradient4398"
       id="linearGradient4404"
       x1="449.7392"
       y1="683.00616"
       x2="447.75687"
       y2="608.66907"
       gradientUnits="userSpaceOnUse" />
    <linearGradient
       inkscape:collect="always"
       xlink:href="#linearGradient4408"
       id="linearGradient4420"
       gradientUnits="userSpaceOnUse"
       x1="210.96414"
       y1="396.90759"
       x2="94.858505"
       y2="233.46518" />
    <linearGradient
       inkscape:collect="always"
       xlink:href="#linearGradient4321"
       id="linearGradient4435"
       gradientUnits="userSpaceOnUse"
       gradientTransform="translate(-107.83829,37.069411)"
       x1="267.09299"
       y1="239.30574"
       x2="337.4068"
       y2="460.32083" />
    <linearGradient
       inkscape:collect="always"
       xlink:href="#linearGradient4446"
       id="linearGradient4452"
       x1="420.60159"
       y1="459.52975"
       x2="416.93335"
       y2="416.56293"
       gradientUnits="userSpaceOnUse" />
    <filter
       inkscape:collect="always"
       id="filter4473">
      <feGaussianBlur
         inkscape:collect="always"
         stdDeviation="0.6878719"
         id="feGaussianBlur4475" />
    </filter>
  </defs>
  <sodipodi:namedview
     id="base"
     pagecolor="#ffffff"
     bordercolor="#666666"
     borderopacity="1.0"
     inkscape:pageopacity="0.0"
     inkscape:pageshadow="2"
     inkscape:zoom="0.83930921"
     inkscape:cx="546.67375"
     inkscape:cy="652.94584"
     inkscape:document-units="px"
     inkscape:current-layer="layer1"
     showgrid="false"
     inkscape:window-width="1600"
     inkscape:window-height="876"
     inkscape:window-x="0"
     inkscape:window-y="24"
     inkscape:window-maximized="1" />
  <metadata
     id="metadata3803">
    <rdf:RDF>
      <cc:Work
         rdf:about="">
        <dc:format>image/svg+xml</dc:format>
        <dc:type
           rdf:resource="http://purl.org/dc/dcmitype/StillImage" />
        <dc:title></dc:title>
      </cc:Work>
    </rdf:RDF>
  </metadata>
  <g
     inkscape:label="Layer 1"
     inkscape:groupmode="layer"
     id="layer1">
    <path
       sodipodi:nodetypes="zzzzz"
       inkscape:connector-curvature="0"
       id="path4423"
       d="M 28.708842,332.52585 C 26.853382,347.58261 206.31507,538.42088 221.56598,541.09728 236.8169,543.77368 363.20323,447.82237 363.87376,437.50749 364.54429,427.19261 179.84525,266.68911 168.26931,264.98002 156.69337,263.27093 30.564312,317.4691 28.708842,332.52585 z"
       style="fill:url(#linearGradient4327);fill-opacity:1;stroke:#000000;stroke-width:1px;stroke-linecap:butt;stroke-linejoin:miter;stroke-opacity:1"
       inkscape:export-filename="/home/alump/Development/bttagwriter/res/drawable-hdpi/start.png"
       inkscape:export-xdpi="87.411659"
       inkscape:export-ydpi="87.411659" />
    <path
       style="fill:url(#linearGradient4435);fill-opacity:1;stroke:#000000;stroke-width:1px;stroke-linecap:butt;stroke-linejoin:miter;stroke-opacity:1"
       d="M 167.65625 264.9375 C 152.79473 264.95208 30.545228 317.70976 28.71875 332.53125 C 27.964969 338.64806 57.134108 373.76292 93.0625 413.5 C 151.57897 383.3603 201.81194 355.87106 275.8125 352.5625 C 226.72038 309.38937 174.28002 265.85442 168.28125 264.96875 C 168.10038 264.94205 167.89215 264.93727 167.65625 264.9375 z "
       id="path4433"
       inkscape:export-filename="/home/alump/Development/bttagwriter/res/drawable-hdpi/start.png"
       inkscape:export-xdpi="87.411659"
       inkscape:export-ydpi="87.411659" />
    <path
       style="fill:url(#linearGradient4335);fill-opacity:1;stroke:#000000;stroke-width:0.97484201px;stroke-linecap:butt;stroke-linejoin:miter;stroke-opacity:1"
       d="m 176.22421,290.85066 c -13.06302,0.68597 -77.852158,29.2783 -115.468748,51.125 l -31.5625,-8.53125 c -0.735856,8.30451 0.531729,17.28802 1.39636,21.69571 -0.468392,13.48649 175.268918,200.42659 190.136148,203.03567 14.86724,2.60907 140.93995,-88.9825 142.4149,-101.39577 0.0922,-3.12145 0.69431,-11.48079 0.59547,-17.91328 L 342.97425,418.25691 C 288.60547,368.98844 188.12512,291.461 177.00546,290.85066 c -0.24049,-0.0132 -0.48753,-0.0154 -0.78125,0 z"
       id="path3808"
       inkscape:connector-curvature="0"
       sodipodi:nodetypes="ccccscccsc"
       inkscape:export-filename="/home/alump/Development/bttagwriter/res/drawable-hdpi/start.png"
       inkscape:export-xdpi="87.411659"
       inkscape:export-ydpi="87.411659" />
    <path
       style="fill:url(#linearGradient4327);fill-opacity:1;stroke:#000000;stroke-width:1px;stroke-linecap:butt;stroke-linejoin:miter;stroke-opacity:1"
       d="M 28.708842,332.52585 C 26.853382,347.58261 206.31507,538.42088 221.56598,541.09728 236.8169,543.77368 363.20323,447.82237 363.87376,437.50749 364.54429,427.19261 185.2068,266.09338 173.63086,264.38429 162.05492,262.6752 30.564312,317.4691 28.708842,332.52585 z"
       id="path3806"
       inkscape:connector-curvature="0"
       sodipodi:nodetypes="zzzzz"
       inkscape:export-filename="/home/alump/Development/bttagwriter/res/drawable-hdpi/start.png"
       inkscape:export-xdpi="87.411659"
       inkscape:export-ydpi="87.411659" />
    <path
       style="fill:#000000;fill-opacity:1;stroke:#000000;stroke-width:1px;stroke-linecap:butt;stroke-linejoin:miter;stroke-opacity:1"
       d="M 70.880112,363.83489 208.49328,507.40533 331.1461,418.97329 196.10274,295.16408 z"
       id="path4343"
       inkscape:connector-curvature="0"
       sodipodi:nodetypes="ccccc"
       inkscape:export-filename="/home/alump/Development/bttagwriter/res/drawable-hdpi/start.png"
       inkscape:export-xdpi="87.411659"
       inkscape:export-ydpi="87.411659" />
    <rect
       style="fill:#000000;fill-opacity:0.60730597;stroke:none"
       id="rect4345"
       width="5.1332307"
       height="24.434826"
       x="-73.194313"
       y="306.62912"
       ry="3.8179414"
       transform="matrix(0.84701759,-0.53156486,0.53162764,0.84697819,0,0)"
       inkscape:transform-center-x="6.7872637"
       inkscape:transform-center-y="8.5312024"
       inkscape:export-filename="/home/alump/Development/bttagwriter/res/drawable-hdpi/start.png"
       inkscape:export-xdpi="87.411659"
       inkscape:export-ydpi="87.411659" />
    <rect
       ry="3.8179414"
       y="306.62912"
       x="-66.521111"
       height="24.434826"
       width="5.1332307"
       id="rect4347"
       style="fill:#000000;fill-opacity:0.60730597;stroke:none"
       transform="matrix(0.84701759,-0.53156486,0.53162764,0.84697819,0,0)"
       inkscape:transform-center-y="4.9839607"
       inkscape:transform-center-x="1.1349412"
       inkscape:export-filename="/home/alump/Development/bttagwriter/res/drawable-hdpi/start.png"
       inkscape:export-xdpi="87.411659"
       inkscape:export-ydpi="87.411659" />
    <rect
       style="fill:#000000;fill-opacity:0.60730597;stroke:none"
       id="rect4349"
       width="5.1332307"
       height="24.434826"
       x="-59.847904"
       y="306.62912"
       ry="3.8179414"
       transform="matrix(0.84701759,-0.53156486,0.53162764,0.84697819,0,0)"
       inkscape:transform-center-x="-4.5173787"
       inkscape:transform-center-y="1.4367207"
       inkscape:export-filename="/home/alump/Development/bttagwriter/res/drawable-hdpi/start.png"
       inkscape:export-xdpi="87.411659"
       inkscape:export-ydpi="87.411659" />
    <path
       style="fill:url(#linearGradient4394);fill-opacity:1;stroke:#000000;stroke-opacity:1"
       d="m 341.19162,243.57131 -16,111.21875 0.875,0 c -0.0204,0.2788 -0.0312,0.56331 -0.0312,0.84375 0,18.6117 45.25865,33.6875 101.09375,33.6875 54.12217,0 98.30839,-14.17941 100.96875,-32 l 0.15625,0 -0.0937,-0.625 c 0.0329,-0.35317 0.0937,-0.70667 0.0937,-1.0625 0,-1.43142 -0.26156,-2.86553 -0.78125,-4.25 -0.008,-0.0219 -0.0229,-0.0406 -0.0312,-0.0625 l -14.375,-107.75 -171.875,0 z"
       id="path4351"
       inkscape:connector-curvature="0"
       inkscape:export-filename="/home/alump/Development/bttagwriter/res/drawable-hdpi/start.png"
       inkscape:export-xdpi="87.411659"
       inkscape:export-ydpi="87.411659" />
    <path
       d="m 551.82874,674.08569 a 101.0984,33.699467 0 1 1 -202.19679,0 101.0984,33.699467 0 1 1 202.19679,0 z"
       sodipodi:ry="33.699467"
       sodipodi:rx="101.0984"
       sodipodi:cy="674.08569"
       sodipodi:cx="450.73035"
       id="path4353"
       style="fill:url(#linearGradient4404);fill-opacity:1;stroke:#000000;stroke-opacity:1"
       sodipodi:type="arc"
       transform="matrix(0.85000001,0,0,0.85000001,44.019922,-327.71284)"
       inkscape:export-filename="/home/alump/Development/bttagwriter/res/drawable-hdpi/start.png"
       inkscape:export-xdpi="87.411659"
       inkscape:export-ydpi="87.411659" />
    <path
       style="fill:#008bda;fill-opacity:0.64840178;stroke:none;filter:url(#filter4376)"
       d="m 423.69162,336.50881 c -15.57266,-0.2127 -25.79224,20.0584 -16.40625,32.53125 7.83277,12.63819 29.30753,11.76331 35.75,-1.8125 7.71686,-13.32907 -3.62726,-32.28242 -19.34375,-30.71875 z"
       id="path4360"
       inkscape:connector-curvature="0"
       inkscape:export-filename="/home/alump/Development/bttagwriter/res/drawable-hdpi/start.png"
       inkscape:export-xdpi="87.411659"
       inkscape:export-ydpi="87.411659" />
    <path
       sodipodi:type="arc"
       style="fill:#ffffff;fill-opacity:0.2283105;stroke:none;filter:url(#filter4384)"
       id="path4366"
       sodipodi:cx="459.15521"
       sodipodi:cy="689.25043"
       sodipodi:rx="16.849733"
       sodipodi:ry="16.849733"
       d="m 476.00495,689.25043 a 16.849733,16.849733 0 1 1 -33.69947,0 16.849733,16.849733 0 1 1 33.69947,0 z"
       transform="translate(-34.552205,-332.04653)"
       inkscape:export-filename="/home/alump/Development/bttagwriter/res/drawable-hdpi/start.png"
       inkscape:export-xdpi="87.411659"
       inkscape:export-ydpi="87.411659" />
    <path
       sodipodi:type="arc"
       style="fill:#000000;fill-opacity:1;stroke:none"
       id="path4358"
       sodipodi:cx="459.15521"
       sodipodi:cy="689.25043"
       sodipodi:rx="16.849733"
       sodipodi:ry="16.849733"
       d="m 476.00495,689.25043 a 16.849733,16.849733 0 1 1 -33.69947,0 16.849733,16.849733 0 1 1 33.69947,0 z"
       transform="translate(-34.552205,-332.04653)"
       inkscape:export-filename="/home/alump/Development/bttagwriter/res/drawable-hdpi/start.png"
       inkscape:export-xdpi="87.411659"
       inkscape:export-ydpi="87.411659" />
    <path
       style="fill:url(#linearGradient4420);stroke:none;stroke-width:1px;stroke-linecap:butt;stroke-linejoin:miter;stroke-opacity:1;fill-opacity:1;opacity:0.55967078"
       d="M 196.09375 295.15625 L 70.875 363.84375 L 110.0625 404.71875 C 157.46402 380.3418 201.32256 359.23668 259.90625 353.65625 L 196.09375 295.15625 z "
       id="path4416"
       inkscape:export-filename="/home/alump/Development/bttagwriter/res/drawable-hdpi/start.png"
       inkscape:export-xdpi="87.411659"
       inkscape:export-ydpi="87.411659" />
    <path
       style="fill:url(#linearGradient4452);stroke:#000000;stroke-width:1px;stroke-linecap:butt;stroke-linejoin:miter;stroke-opacity:1;fill-opacity:1"
       d="m 375.74903,419.65473 c -1.67416,6.07072 11.91716,46.93924 18.00869,49.96864 6.09153,3.0294 71.37975,-15.89432 74.66484,-23.00907 3.28509,-7.11475 -27.49345,-40.65695 -31.172,-41.28184 -3.67855,-0.62489 -59.82737,8.25155 -61.50153,14.32227 z"
       id="path4444"
       inkscape:connector-curvature="0"
       sodipodi:nodetypes="zzzzz"
       inkscape:export-filename="/home/alump/Development/bttagwriter/res/drawable-hdpi/start.png"
       inkscape:export-xdpi="87.411659"
       inkscape:export-ydpi="87.411659" />
    <path
       style="fill:#008bda;fill-opacity:0.64705882;stroke:#000000;stroke-width:0.445086px;stroke-linecap:butt;stroke-linejoin:miter;stroke-opacity:1;filter:url(#filter4473)"
       d="m 417.42124,344.765 c 2.85489,8.33665 -0.1303,1.42741 0.3643,9.43405 -2.77568,6.00702 3.43657,9.58588 0.33709,10.98802 -1.84361,5.75355 0.44907,7.84353 6.11111,7.20293 1.85639,-3.29376 7.66545,-6.12289 13.50921,-7.5769 2.84575,-2.41603 -12.70581,-7.23033 -0.28125,-8.4375 2.89145,-2.74223 -9.69842,-6.3044 -11.22796,-10.3606 -0.95946,-1.97324 -12.02456,-8.24214 -8.82655,-1.41986 l 0.014,0.16986 z m 9.21875,9.21875 c -0.64513,0.80397 -0.53908,-1.0478 0,0 z m 0.21875,8.4375 c -0.9823,1.29369 -0.84679,-1.6009 0,0 z"
       id="path4463"
       inkscape:connector-curvature="0"
       transform="matrix(0.92121891,0,0,0.92121891,33.533133,27.598052)"
       inkscape:export-filename="/home/alump/Development/bttagwriter/res/drawable-hdpi/start.png"
       inkscape:export-xdpi="87.411659"
       inkscape:export-ydpi="87.411659" />
    <path
       id="path4461"
       d="m 419.01521,344.19382 0.19472,2.61488 2.33671,1.47435 0,5.88348 -2.25325,-1.54389 0.19472,2.62879 2.05853,1.29353 0,0.58417 -2.57316,0.82063 0,2.36452 2.57316,-0.91799 0,6.25902 -2.29498,0.72327 0,2.37843 2.29498,-0.82063 0,2.0307 2.25324,0 0,-2.85133 10.94634,-3.93623 -8.17846,-5.59139 7.90028,-2.83742 -10.66816,-7.28829 0,-1.86379 -2.25324,-0.75109 0,1.07099 -2.53143,-1.72471 z m 4.78467,5.50794 7.09356,4.47868 -6.37029,2.0168 -0.72327,-0.50073 0,-5.99475 z m 0.612,8.66527 6.75974,4.25614 -7.37174,2.32279 0,-6.35639 0.612,-0.22254 z"
       style="fill:#ffffff;fill-opacity:0.64705884000000002;stroke:none;stroke-width:0.44508599999999998px;stroke-linecap:butt;stroke-linejoin:miter;stroke-opacity:1"
       inkscape:connector-curvature="0"
       inkscape:export-filename="/home/alump/Development/bttagwriter/res/drawable-hdpi/start.png"
       inkscape:export-xdpi="87.411659"
       inkscape:export-ydpi="87.411659" />
    <path
       style="fill:#000000;fill-opacity:0.09132421;stroke:none"
       d="m 379.75084,427.23711 16.21787,39.80749 69.0839,-20.21968 -28.43392,-39.17563 -54.12977,13.05855 0.84249,2.9487 52.23417,-13.47978 23.16839,34.54195 -60.86966,17.48159 -15.16476,-33.27821 50.33857,-13.26917 17.06036,25.2746 -50.33858,13.90103 -10.53108,-22.95776 41.49246,-10.53109 10.7417,16.21787 -40.8606,12.42668 1.26373,2.31684 44.01993,-12.84792 -14.53289,-21.27279 -45.28366,12.00544 12.42668,28.43391 55.81474,-15.79662 -20.21969,-29.69765 z"
       id="path4477"
       inkscape:connector-curvature="0"
       sodipodi:nodetypes="ccccccccccccccccccccccccc"
       inkscape:export-filename="/home/alump/Development/bttagwriter/res/drawable-hdpi/start.png"
       inkscape:export-xdpi="87.411659"
       inkscape:export-ydpi="87.411659" />
    <rect
       style="opacity:0.55967078;fill:#000000;fill-opacity:0.09132421;stroke:none"
       id="rect4481"
       width="6.739893"
       height="11.58419"
       x="184.57465"
       y="559.69128"
       ry="0"
       transform="matrix(0.91358544,-0.40664682,0.40664682,0.91358544,0,0)"
       inkscape:export-filename="/home/alump/Development/bttagwriter/res/drawable-hdpi/start.png"
       inkscape:export-xdpi="87.411659"
       inkscape:export-ydpi="87.411659" />
    <path
       sodipodi:type="arc"
       style="fill:#000000;fill-opacity:1;stroke:none"
       id="path4495"
       sodipodi:cx="364.43661"
       sodipodi:cy="312.76587"
       sodipodi:rx="1.936116"
       sodipodi:ry="3.872232"
       d="m 366.37273,312.76587 a 1.936116,3.872232 0 1 1 -3.87223,0 1.936116,3.872232 0 1 1 3.87223,0 z"
       transform="matrix(1.5384615,0,0,1.6923077,-195.19258,-213.84944)"
       inkscape:export-filename="/home/alump/Development/bttagwriter/res/drawable-hdpi/start.png"
       inkscape:export-xdpi="87.411659"
       inkscape:export-ydpi="87.411659" />
    <path
       transform="matrix(1.5384615,0,0,1.6923077,-194.29899,-236.18924)"
       d="m 366.37273,312.76587 a 1.936116,3.872232 0 1 1 -3.87223,0 1.936116,3.872232 0 1 1 3.87223,0 z"
       sodipodi:ry="3.872232"
       sodipodi:rx="1.936116"
       sodipodi:cy="312.76587"
       sodipodi:cx="364.43661"
       id="path4497"
       style="fill:#000000;fill-opacity:1;stroke:none"
       sodipodi:type="arc"
       inkscape:export-filename="/home/alump/Development/bttagwriter/res/drawable-hdpi/start.png"
       inkscape:export-xdpi="87.411659"
       inkscape:export-ydpi="87.411659" />
    <path
       sodipodi:type="arc"
       style="fill:#000000;fill-opacity:1;stroke:none"
       id="path4499"
       sodipodi:cx="364.43661"
       sodipodi:cy="312.76587"
       sodipodi:rx="1.936116"
       sodipodi:ry="3.872232"
       d="m 366.37273,312.76587 a 1.936116,3.872232 0 1 1 -3.87223,0 1.936116,3.872232 0 1 1 3.87223,0 z"
       transform="matrix(1.5384615,0,0,1.6923077,-195.49045,-192.99896)"
       inkscape:export-filename="/home/alump/Development/bttagwriter/res/drawable-hdpi/start.png"
       inkscape:export-xdpi="87.411659"
       inkscape:export-ydpi="87.411659" />
    <path
       transform="matrix(1.5384615,0,0,1.6923077,-207.40501,-205.21138)"
       d="m 366.37273,312.76587 a 1.936116,3.872232 0 1 1 -3.87223,0 1.936116,3.872232 0 1 1 3.87223,0 z"
       sodipodi:ry="3.872232"
       sodipodi:rx="1.936116"
       sodipodi:cy="312.76587"
       sodipodi:cx="364.43661"
       id="path4501"
       style="fill:#000000;fill-opacity:1;stroke:none"
       sodipodi:type="arc"
       inkscape:export-filename="/home/alump/Development/bttagwriter/res/drawable-hdpi/start.png"
       inkscape:export-xdpi="87.411659"
       inkscape:export-ydpi="87.411659" />
    <path
       sodipodi:type="arc"
       style="fill:#000000;fill-opacity:1;stroke:none"
       id="path4503"
       sodipodi:cx="364.43661"
       sodipodi:cy="312.76587"
       sodipodi:rx="1.936116"
       sodipodi:ry="3.872232"
       d="m 366.37273,312.76587 a 1.936116,3.872232 0 1 1 -3.87223,0 1.936116,3.872232 0 1 1 3.87223,0 z"
       transform="matrix(1.5384615,0,0,1.6923077,-206.51142,-225.764)"
       inkscape:export-filename="/home/alump/Development/bttagwriter/res/drawable-hdpi/start.png"
       inkscape:export-xdpi="87.411659"
       inkscape:export-ydpi="87.411659" />
    <path
       transform="matrix(1.5384615,0,0,1.6923077,-205.31996,-248.40166)"
       d="m 366.37273,312.76587 a 1.936116,3.872232 0 1 1 -3.87223,0 1.936116,3.872232 0 1 1 3.87223,0 z"
       sodipodi:ry="3.872232"
       sodipodi:rx="1.936116"
       sodipodi:cy="312.76587"
       sodipodi:cx="364.43661"
       id="path4505"
       style="fill:#000000;fill-opacity:1;stroke:none"
       sodipodi:type="arc"
       inkscape:export-filename="/home/alump/Development/bttagwriter/res/drawable-hdpi/start.png"
       inkscape:export-xdpi="87.411659"
       inkscape:export-ydpi="87.411659" />
    <path
       sodipodi:type="arc"
       style="fill:#000000;fill-opacity:1;stroke:none"
       id="path4507"
       sodipodi:cx="364.43661"
       sodipodi:cy="312.76587"
       sodipodi:rx="1.936116"
       sodipodi:ry="3.872232"
       d="m 366.37273,312.76587 a 1.936116,3.872232 0 1 1 -3.87223,0 1.936116,3.872232 0 1 1 3.87223,0 z"
       transform="matrix(1.5384615,0,0,1.6923077,-208.00074,-182.57372)"
       inkscape:export-filename="/home/alump/Development/bttagwriter/res/drawable-hdpi/start.png"
       inkscape:export-xdpi="87.411659"
       inkscape:export-ydpi="87.411659" />
    <path
       transform="matrix(1.5384615,0,0,1.6923077,-216.93666,-218.01954)"
       d="m 366.37273,312.76587 a 1.936116,3.872232 0 1 1 -3.87223,0 1.936116,3.872232 0 1 1 3.87223,0 z"
       sodipodi:ry="3.872232"
       sodipodi:rx="1.936116"
       sodipodi:cy="312.76587"
       sodipodi:cx="364.43661"
       id="path4509"
       style="fill:#000000;fill-opacity:1;stroke:none"
       sodipodi:type="arc"
       inkscape:export-filename="/home/alump/Development/bttagwriter/res/drawable-hdpi/start.png"
       inkscape:export-xdpi="87.411659"
       inkscape:export-ydpi="87.411659" />
    <path
       sodipodi:type="arc"
       style="fill:#000000;fill-opacity:1;stroke:none"
       id="path4511"
       sodipodi:cx="364.43661"
       sodipodi:cy="312.76587"
       sodipodi:rx="1.936116"
       sodipodi:ry="3.872232"
       d="m 366.37273,312.76587 a 1.936116,3.872232 0 1 1 -3.87223,0 1.936116,3.872232 0 1 1 3.87223,0 z"
       transform="matrix(1.5384615,0,0,1.6923077,-215.44734,-240.06148)"
       inkscape:export-filename="/home/alump/Development/bttagwriter/res/drawable-hdpi/start.png"
       inkscape:export-xdpi="87.411659"
       inkscape:export-ydpi="87.411659" />
    <path
       transform="matrix(1.5384615,0,0,1.6923077,-217.83025,-195.67974)"
       d="m 366.37273,312.76587 a 1.936116,3.872232 0 1 1 -3.87223,0 1.936116,3.872232 0 1 1 3.87223,0 z"
       sodipodi:ry="3.872232"
       sodipodi:rx="1.936116"
       sodipodi:cy="312.76587"
       sodipodi:cx="364.43661"
       id="path4513"
       style="fill:#000000;fill-opacity:1;stroke:none"
       sodipodi:type="arc"
       inkscape:export-filename="/home/alump/Development/bttagwriter/res/drawable-hdpi/start.png"
       inkscape:export-xdpi="87.411659"
       inkscape:export-ydpi="87.411659" />
    <path
       transform="matrix(1.5384615,0,0,1.6923077,-183.87375,-178.10576)"
       d="m 366.37273,312.76587 a 1.936116,3.872232 0 1 1 -3.87223,0 1.936116,3.872232 0 1 1 3.87223,0 z"
       sodipodi:ry="3.872232"
       sodipodi:rx="1.936116"
       sodipodi:cy="312.76587"
       sodipodi:cx="364.43661"
       id="path4515"
       style="fill:#000000;fill-opacity:1;stroke:none"
       sodipodi:type="arc"
       inkscape:export-filename="/home/alump/Development/bttagwriter/res/drawable-hdpi/start.png"
       inkscape:export-xdpi="87.411659"
       inkscape:export-ydpi="87.411659" />
    <path
       sodipodi:type="arc"
       style="fill:#000000;fill-opacity:1;stroke:none"
       id="path4517"
       sodipodi:cx="364.43661"
       sodipodi:cy="312.76587"
       sodipodi:rx="1.936116"
       sodipodi:ry="3.872232"
       d="m 366.37273,312.76587 a 1.936116,3.872232 0 1 1 -3.87223,0 1.936116,3.872232 0 1 1 3.87223,0 z"
       transform="matrix(1.5384615,0,0,1.6923077,-183.27802,-203.4242)"
       inkscape:export-filename="/home/alump/Development/bttagwriter/res/drawable-hdpi/start.png"
       inkscape:export-xdpi="87.411659"
       inkscape:export-ydpi="87.411659" />
    <path
       transform="matrix(1.5384615,0,0,1.6923077,-182.08657,-225.46613)"
       d="m 366.37273,312.76587 a 1.936116,3.872232 0 1 1 -3.87223,0 1.936116,3.872232 0 1 1 3.87223,0 z"
       sodipodi:ry="3.872232"
       sodipodi:rx="1.936116"
       sodipodi:cy="312.76587"
       sodipodi:cx="364.43661"
       id="path4519"
       style="fill:#000000;fill-opacity:1;stroke:none"
       sodipodi:type="arc"
       inkscape:export-filename="/home/alump/Development/bttagwriter/res/drawable-hdpi/start.png"
       inkscape:export-xdpi="87.411659"
       inkscape:export-ydpi="87.411659" />
    <path
       transform="matrix(1.5384615,0,0,1.6923077,-196.08618,-170.06343)"
       d="m 366.37273,312.76587 a 1.936116,3.872232 0 1 1 -3.87223,0 1.936116,3.872232 0 1 1 3.87223,0 z"
       sodipodi:ry="3.872232"
       sodipodi:rx="1.936116"
       sodipodi:cy="312.76587"
       sodipodi:cx="364.43661"
       id="path4521"
       style="fill:#000000;fill-opacity:1;stroke:none"
       sodipodi:type="arc"
       inkscape:export-filename="/home/alump/Development/bttagwriter/res/drawable-hdpi/start.png"
       inkscape:export-xdpi="87.411659"
       inkscape:export-ydpi="87.411659" />
    <path
       transform="matrix(-1.5384615,0,0,1.6923077,1049.7644,-218.01953)"
       d="m 366.37273,312.76587 a 1.936116,3.872232 0 1 1 -3.87223,0 1.936116,3.872232 0 1 1 3.87223,0 z"
       sodipodi:ry="3.872232"
       sodipodi:rx="1.936116"
       sodipodi:cy="312.76587"
       sodipodi:cx="364.43661"
       id="path4555"
       style="fill:#000000;fill-opacity:1;stroke:none"
       sodipodi:type="arc"
       inkscape:export-filename="/home/alump/Development/bttagwriter/res/drawable-hdpi/start.png"
       inkscape:export-xdpi="87.411659"
       inkscape:export-ydpi="87.411659" />
    <path
       sodipodi:type="arc"
       style="fill:#000000;fill-opacity:1;stroke:none"
       id="path4557"
       sodipodi:cx="364.43661"
       sodipodi:cy="312.76587"
       sodipodi:rx="1.936116"
       sodipodi:ry="3.872232"
       d="m 366.37273,312.76587 a 1.936116,3.872232 0 1 1 -3.87223,0 1.936116,3.872232 0 1 1 3.87223,0 z"
       transform="matrix(-1.5384615,0,0,1.6923077,1048.8708,-240.35933)"
       inkscape:export-filename="/home/alump/Development/bttagwriter/res/drawable-hdpi/start.png"
       inkscape:export-xdpi="87.411659"
       inkscape:export-ydpi="87.411659" />
    <path
       transform="matrix(-1.5384615,0,0,1.6923077,1050.0623,-197.16905)"
       d="m 366.37273,312.76587 a 1.936116,3.872232 0 1 1 -3.87223,0 1.936116,3.872232 0 1 1 3.87223,0 z"
       sodipodi:ry="3.872232"
       sodipodi:rx="1.936116"
       sodipodi:cy="312.76587"
       sodipodi:cx="364.43661"
       id="path4559"
       style="fill:#000000;fill-opacity:1;stroke:none"
       sodipodi:type="arc"
       inkscape:export-filename="/home/alump/Development/bttagwriter/res/drawable-hdpi/start.png"
       inkscape:export-xdpi="87.411659"
       inkscape:export-ydpi="87.411659" />
    <path
       sodipodi:type="arc"
       style="fill:#000000;fill-opacity:1;stroke:none"
       id="path4561"
       sodipodi:cx="364.43661"
       sodipodi:cy="312.76587"
       sodipodi:rx="1.936116"
       sodipodi:ry="3.872232"
       d="m 366.37273,312.76587 a 1.936116,3.872232 0 1 1 -3.87223,0 1.936116,3.872232 0 1 1 3.87223,0 z"
       transform="matrix(-1.5384615,0,0,1.6923077,1061.9768,-209.38147)"
       inkscape:export-filename="/home/alump/Development/bttagwriter/res/drawable-hdpi/start.png"
       inkscape:export-xdpi="87.411659"
       inkscape:export-ydpi="87.411659" />
    <path
       transform="matrix(-1.5384615,0,0,1.6923077,1061.0833,-229.93409)"
       d="m 366.37273,312.76587 a 1.936116,3.872232 0 1 1 -3.87223,0 1.936116,3.872232 0 1 1 3.87223,0 z"
       sodipodi:ry="3.872232"
       sodipodi:rx="1.936116"
       sodipodi:cy="312.76587"
       sodipodi:cx="364.43661"
       id="path4563"
       style="fill:#000000;fill-opacity:1;stroke:none"
       sodipodi:type="arc"
       inkscape:export-filename="/home/alump/Development/bttagwriter/res/drawable-hdpi/start.png"
       inkscape:export-xdpi="87.411659"
       inkscape:export-ydpi="87.411659" />
    <path
       sodipodi:type="arc"
       style="fill:#000000;fill-opacity:1;stroke:none"
       id="path4565"
       sodipodi:cx="364.43661"
       sodipodi:cy="312.76587"
       sodipodi:rx="1.936116"
       sodipodi:ry="3.872232"
       d="m 366.37273,312.76587 a 1.936116,3.872232 0 1 1 -3.87223,0 1.936116,3.872232 0 1 1 3.87223,0 z"
       transform="matrix(-1.5384615,0,0,1.6923077,1059.8918,-252.57175)"
       inkscape:export-filename="/home/alump/Development/bttagwriter/res/drawable-hdpi/start.png"
       inkscape:export-xdpi="87.411659"
       inkscape:export-ydpi="87.411659" />
    <path
       transform="matrix(-1.5384615,0,0,1.6923077,1062.5726,-186.74381)"
       d="m 366.37273,312.76587 a 1.936116,3.872232 0 1 1 -3.87223,0 1.936116,3.872232 0 1 1 3.87223,0 z"
       sodipodi:ry="3.872232"
       sodipodi:rx="1.936116"
       sodipodi:cy="312.76587"
       sodipodi:cx="364.43661"
       id="path4567"
       style="fill:#000000;fill-opacity:1;stroke:none"
       sodipodi:type="arc"
       inkscape:export-filename="/home/alump/Development/bttagwriter/res/drawable-hdpi/start.png"
       inkscape:export-xdpi="87.411659"
       inkscape:export-ydpi="87.411659" />
    <path
       sodipodi:type="arc"
       style="fill:#000000;fill-opacity:1;stroke:none"
       id="path4569"
       sodipodi:cx="364.43661"
       sodipodi:cy="312.76587"
       sodipodi:rx="1.936116"
       sodipodi:ry="3.872232"
       d="m 366.37273,312.76587 a 1.936116,3.872232 0 1 1 -3.87223,0 1.936116,3.872232 0 1 1 3.87223,0 z"
       transform="matrix(-1.5384615,0,0,1.6923077,1071.5085,-222.18963)"
       inkscape:export-filename="/home/alump/Development/bttagwriter/res/drawable-hdpi/start.png"
       inkscape:export-xdpi="87.411659"
       inkscape:export-ydpi="87.411659" />
    <path
       transform="matrix(-1.5384615,0,0,1.6923077,1070.0192,-244.23157)"
       d="m 366.37273,312.76587 a 1.936116,3.872232 0 1 1 -3.87223,0 1.936116,3.872232 0 1 1 3.87223,0 z"
       sodipodi:ry="3.872232"
       sodipodi:rx="1.936116"
       sodipodi:cy="312.76587"
       sodipodi:cx="364.43661"
       id="path4571"
       style="fill:#000000;fill-opacity:1;stroke:none"
       sodipodi:type="arc"
       inkscape:export-filename="/home/alump/Development/bttagwriter/res/drawable-hdpi/start.png"
       inkscape:export-xdpi="87.411659"
       inkscape:export-ydpi="87.411659" />
    <path
       sodipodi:type="arc"
       style="fill:#000000;fill-opacity:1;stroke:none"
       id="path4573"
       sodipodi:cx="364.43661"
       sodipodi:cy="312.76587"
       sodipodi:rx="1.936116"
       sodipodi:ry="3.872232"
       d="m 366.37273,312.76587 a 1.936116,3.872232 0 1 1 -3.87223,0 1.936116,3.872232 0 1 1 3.87223,0 z"
       transform="matrix(-1.5384615,0,0,1.6923077,1072.4021,-199.84983)"
       inkscape:export-filename="/home/alump/Development/bttagwriter/res/drawable-hdpi/start.png"
       inkscape:export-xdpi="87.411659"
       inkscape:export-ydpi="87.411659" />
    <path
       sodipodi:type="arc"
       style="fill:#000000;fill-opacity:1;stroke:none"
       id="path4575"
       sodipodi:cx="364.43661"
       sodipodi:cy="312.76587"
       sodipodi:rx="1.936116"
       sodipodi:ry="3.872232"
       d="m 366.37273,312.76587 a 1.936116,3.872232 0 1 1 -3.87223,0 1.936116,3.872232 0 1 1 3.87223,0 z"
       transform="matrix(-1.5384615,0,0,1.6923077,1038.4456,-182.27585)"
       inkscape:export-filename="/home/alump/Development/bttagwriter/res/drawable-hdpi/start.png"
       inkscape:export-xdpi="87.411659"
       inkscape:export-ydpi="87.411659" />
    <path
       transform="matrix(-1.5384615,0,0,1.6923077,1037.8499,-207.59429)"
       d="m 366.37273,312.76587 a 1.936116,3.872232 0 1 1 -3.87223,0 1.936116,3.872232 0 1 1 3.87223,0 z"
       sodipodi:ry="3.872232"
       sodipodi:rx="1.936116"
       sodipodi:cy="312.76587"
       sodipodi:cx="364.43661"
       id="path4577"
       style="fill:#000000;fill-opacity:1;stroke:none"
       sodipodi:type="arc"
       inkscape:export-filename="/home/alump/Development/bttagwriter/res/drawable-hdpi/start.png"
       inkscape:export-xdpi="87.411659"
       inkscape:export-ydpi="87.411659" />
    <path
       sodipodi:type="arc"
       style="fill:#000000;fill-opacity:1;stroke:none"
       id="path4579"
       sodipodi:cx="364.43661"
       sodipodi:cy="312.76587"
       sodipodi:rx="1.936116"
       sodipodi:ry="3.872232"
       d="m 366.37273,312.76587 a 1.936116,3.872232 0 1 1 -3.87223,0 1.936116,3.872232 0 1 1 3.87223,0 z"
       transform="matrix(-1.5384615,0,0,1.6923077,1036.6584,-229.63622)"
       inkscape:export-filename="/home/alump/Development/bttagwriter/res/drawable-hdpi/start.png"
       inkscape:export-xdpi="87.411659"
       inkscape:export-ydpi="87.411659" />
    <path
       sodipodi:type="arc"
       style="fill:#000000;fill-opacity:1;stroke:none"
       id="path4581"
       sodipodi:cx="364.43661"
       sodipodi:cy="312.76587"
       sodipodi:rx="1.936116"
       sodipodi:ry="3.872232"
       d="m 366.37273,312.76587 a 1.936116,3.872232 0 1 1 -3.87223,0 1.936116,3.872232 0 1 1 3.87223,0 z"
       transform="matrix(-1.5384615,0,0,1.6923077,1050.658,-174.23352)"
       inkscape:export-filename="/home/alump/Development/bttagwriter/res/drawable-hdpi/start.png"
       inkscape:export-xdpi="87.411659"
       inkscape:export-ydpi="87.411659" />
    <rect
       style="fill:#000000;fill-opacity:0;stroke:none"
       id="rect4583"
       width="514.70898"
       height="356.24536"
       x="21.446207"
       y="211.19424"
       inkscape:export-filename="/home/alump/Development/bttagwriter/res/drawable-hdpi/start.png"
       inkscape:export-xdpi="87.411659"
       inkscape:export-ydpi="87.411659" />
  </g>
</svg>
