<?xml version="1.0" encoding="UTF-8" standalone="no"?>
<!-- Created with Inkscape (http://www.inkscape.org/) -->

<svg
   xmlns:dc="http://purl.org/dc/elements/1.1/"
   xmlns:cc="http://creativecommons.org/ns#"
   xmlns:rdf="http://www.w3.org/1999/02/22-rdf-syntax-ns#"
   xmlns:svg="http://www.w3.org/2000/svg"
   xmlns="http://www.w3.org/2000/svg"
   xmlns:xlink="http://www.w3.org/1999/xlink"
   xmlns:sodipodi="http://sodipodi.sourceforge.net/DTD/sodipodi-0.dtd"
   xmlns:inkscape="http://www.inkscape.org/namespaces/inkscape"
   width="72"
   height="72"
   id="svg4043"
   version="1.1"
   inkscape:version="0.48.2 r9819"
   sodipodi:docname="start.svg"
   inkscape:export-filename="/home/alump/Development/bttagwriter/res/drawable-hdpi/ic_launcher.png"
   inkscape:export-xdpi="90"
   inkscape:export-ydpi="90">
  <defs
     id="defs4045">
    <linearGradient
       id="linearGradient5295">
      <stop
         style="stop-color:#b5b5f1;stop-opacity:1;"
         offset="0"
         id="stop5297" />
      <stop
         style="stop-color:#9e9ebf;stop-opacity:1;"
         offset="1"
         id="stop5299" />
    </linearGradient>
    <linearGradient
       id="linearGradient5189">
      <stop
         style="stop-color:#e7e7ff;stop-opacity:1;"
         offset="0"
         id="stop5191" />
      <stop
         style="stop-color:#a4a4ff;stop-opacity:1;"
         offset="1"
         id="stop5193" />
    </linearGradient>
    <linearGradient
       inkscape:collect="always"
       xlink:href="#linearGradient4446"
       id="linearGradient4860"
       gradientUnits="userSpaceOnUse"
       gradientTransform="matrix(0.74484419,0,0,0.74484419,-369.64649,-298.04994)"
       x1="420.60159"
       y1="459.52975"
       x2="423.26257"
       y2="413.4942" />
    <linearGradient
       id="linearGradient4446">
      <stop
         id="stop6148"
         offset="0"
         style="stop-color:#ffffff;stop-opacity:1;" />
      <stop
         style="stop-color:#eaeaea;stop-opacity:1;"
         offset="0.76712328"
         id="stop6150" />
      <stop
         style="stop-color:#d6d6d6;stop-opacity:1;"
         offset="1"
         id="stop4450" />
    </linearGradient>
    <filter
       color-interpolation-filters="sRGB"
       inkscape:collect="always"
       id="filter4823">
      <feGaussianBlur
         inkscape:collect="always"
         stdDeviation="1.1749623"
         id="feGaussianBlur4825" />
    </filter>
    <filter
       inkscape:collect="always"
       id="filter5247"
       x="-0.21570765"
       width="1.4314153"
       y="-0.027374189"
       height="1.0547484">
      <feGaussianBlur
         inkscape:collect="always"
         stdDeviation="0.57681329"
         id="feGaussianBlur5249" />
    </filter>
    <filter
       inkscape:collect="always"
       id="filter5267"
       x="-0.26178082"
       width="1.5235616"
       y="-0.05965397"
       height="1.1193079">
      <feGaussianBlur
         inkscape:collect="always"
         stdDeviation="1.1220626"
         id="feGaussianBlur5269" />
    </filter>
    <filter
       inkscape:collect="always"
       id="filter5281"
       x="-0.094577216"
       width="1.1891544"
       y="-0.48672666"
       height="1.9734533">
      <feGaussianBlur
         inkscape:collect="always"
         stdDeviation="1.463695"
         id="feGaussianBlur5283" />
    </filter>
    <filter
       inkscape:collect="always"
       id="filter5291"
       x="-0.32062499"
       width="1.64125"
       y="-0.1917757"
       height="1.3835514">
      <feGaussianBlur
         inkscape:collect="always"
         stdDeviation="2.4428572"
         id="feGaussianBlur5293" />
    </filter>
    <filter
       inkscape:collect="always"
       id="filter5335"
       x="-0.42441375"
       width="1.8488275"
       y="-0.074199708"
       height="1.1483994">
      <feGaussianBlur
         inkscape:collect="always"
         stdDeviation="3.4998342"
         id="feGaussianBlur5337" />
    </filter>
    <filter
       inkscape:collect="always"
       id="filter5357">
      <feGaussianBlur
         inkscape:collect="always"
         stdDeviation="0.6727616"
         id="feGaussianBlur5359" />
    </filter>
    <filter
       inkscape:collect="always"
       id="filter5388"
       x="-0.36122095"
       width="1.7224419"
       y="-0.07195136"
       height="1.1439027">
      <feGaussianBlur
         inkscape:collect="always"
         stdDeviation="0.90852323"
         id="feGaussianBlur5390" />
    </filter>
    <radialGradient
       inkscape:collect="always"
       xlink:href="#linearGradient5189"
       id="radialGradient5467"
       gradientUnits="userSpaceOnUse"
       gradientTransform="matrix(0.34819785,0,0,0.50485084,-52.721616,-79.398064)"
       cx="19.767445"
       cy="230.14432"
       fx="19.767445"
       fy="230.14432"
       r="41.868568" />
    <linearGradient
       inkscape:collect="always"
       xlink:href="#linearGradient5295"
       id="linearGradient5470"
       gradientUnits="userSpaceOnUse"
       gradientTransform="matrix(0.34819785,0,0,0.34819785,-52.721616,-40.58469)"
       x1="32.785713"
       y1="189.01443"
       x2="31.499998"
       y2="194.72871" />
    <filter
       inkscape:collect="always"
       id="filter5474"
       x="-0.25834197"
       width="1.5166839"
       y="-0.59357142"
       height="2.1871428">
      <feGaussianBlur
         inkscape:collect="always"
         stdDeviation="2.9678571"
         id="feGaussianBlur5476" />
    </filter>
    <filter
       inkscape:collect="always"
       id="filter5486"
       x="-0.39731782"
       width="1.7946356"
       y="-0.1207098"
       height="1.2414196">
      <feGaussianBlur
         inkscape:collect="always"
         stdDeviation="2.9602638"
         id="feGaussianBlur5488" />
    </filter>
    <filter
       inkscape:collect="always"
       id="filter5518"
       x="-0.19168024"
       width="1.3833605"
       y="-0.053785123"
       height="1.1075702">
      <feGaussianBlur
         inkscape:collect="always"
         stdDeviation="1.1333294"
         id="feGaussianBlur5520" />
    </filter>
    <linearGradient
       inkscape:collect="always"
       xlink:href="#linearGradient5295"
       id="linearGradient6219"
       gradientUnits="userSpaceOnUse"
       gradientTransform="matrix(0.36559317,0,0,0.36559317,41.514854,-69.668814)"
       x1="32.785713"
       y1="189.01443"
       x2="31.499998"
       y2="194.72871" />
    <radialGradient
       inkscape:collect="always"
       xlink:href="#linearGradient5189"
       id="radialGradient6221"
       gradientUnits="userSpaceOnUse"
       gradientTransform="matrix(0.36559317,0,0,0.53007223,41.514854,-110.42123)"
       cx="19.767445"
       cy="230.14432"
       fx="19.767445"
       fy="230.14432"
       r="41.868568" />
    <filter
       inkscape:collect="always"
       id="filter6243">
      <feGaussianBlur
         inkscape:collect="always"
         stdDeviation="0.59732027"
         id="feGaussianBlur6245" />
    </filter>
  </defs>
  <sodipodi:namedview
     id="base"
     pagecolor="#ffffff"
     bordercolor="#666666"
     borderopacity="1.0"
     inkscape:pageopacity="0.0"
     inkscape:pageshadow="2"
     inkscape:zoom="7"
     inkscape:cx="62.154091"
     inkscape:cy="21.234153"
     inkscape:current-layer="layer1"
     showgrid="true"
     inkscape:grid-bbox="true"
     inkscape:document-units="px"
     inkscape:window-width="1534"
     inkscape:window-height="876"
     inkscape:window-x="66"
     inkscape:window-y="24"
     inkscape:window-maximized="1" />
  <metadata
     id="metadata4048">
    <rdf:RDF>
      <cc:Work
         rdf:about="">
        <dc:format>image/svg+xml</dc:format>
        <dc:type
           rdf:resource="http://purl.org/dc/dcmitype/StillImage" />
        <dc:title></dc:title>
      </cc:Work>
    </rdf:RDF>
  </metadata>
  <g
     id="layer1"
     inkscape:label="Layer 1"
     inkscape:groupmode="layer"
     transform="translate(0,24)">
    <path
       style="fill:#000000;fill-opacity:0.21719456;fill-rule:evenodd;stroke:none;filter:url(#filter6243)"
       d="m 88.28125,-3.125 c -7.554433,0.1748799 -11.252275,8.6272819 -9.71875,15.28125 0.382506,17.130622 -0.721499,34.425817 0.46875,51.46875 1.926082,7.149286 10.576272,8.216932 16.8125,7.21875 16.29825,-0.370024 32.75243,0.691096 48.96875,-0.4375 7.14233,-2.05931 8.18923,-10.550734 7.1875,-16.84375 -0.28805,-16.354893 0.53902,-32.837529 -0.34375,-49.125 -1.78274,-7.4137338 -10.5634,-8.6083235 -16.9375,-7.59375 -15.47871,0.021664 -30.96082,-0.042781 -46.4375,0.03125 z"
       id="rect6223"
       inkscape:connector-curvature="0"
       transform="matrix(0.76655999,0,0,0.76655999,-56.931909,-18.858515)" />
    <path
       sodipodi:type="arc"
       style="fill:#000000;fill-opacity:0.30593609;fill-rule:evenodd;stroke:none;filter:url(#filter5474)"
       id="path5446"
       sodipodi:cx="39.642857"
       sodipodi:cy="75.285713"
       sodipodi:rx="13.785714"
       sodipodi:ry="6"
       d="m 53.428571,75.285713 a 13.785714,6 0 1 1 -27.571429,0 13.785714,6 0 1 1 27.571429,0 z"
       transform="matrix(0.74679794,0,0,0.74679794,-68.462346,9.1052847)" />
    <path
       style="fill:#000000;fill-opacity:0.56164383;stroke:none;filter:url(#filter4823)"
       d="m 597.22888,661.9093 c -19.30929,2.31178 -38.98188,5.22959 -57.28125,11.8125 -4.58293,1.05869 -6.01344,5.88394 -4.5625,10 3.418,15.19954 8.02026,30.73917 16.28125,43.9375 4.09442,5.64533 12.08955,1.60008 17.625,1.1875 20.12502,-4.82748 40.74974,-9.9465 59.09375,-19.6875 6.18241,-2.8335 2.92686,-10.28051 0.125,-14.375 -7.97574,-12.03449 -17.24765,-23.67575 -28.59375,-32.53125 -0.84441,-0.392 -1.75684,-0.43414 -2.6875,-0.34375 z"
       id="path4805"
       inkscape:connector-curvature="0"
       transform="matrix(0.64883473,0,0,0.64883473,-435.13247,-420.28214)"
       inkscape:export-filename="/home/alump/Development/bttagwriter/res/drawable-hdpi/ic_launcher.png"
       inkscape:export-xdpi="61.40324"
       inkscape:export-ydpi="61.40324" />
    <path
       style="fill:url(#linearGradient4860);fill-opacity:1;stroke:#9d9d9d;stroke-width:1;stroke-linecap:butt;stroke-linejoin:miter;stroke-miterlimit:4;stroke-opacity:1;stroke-dasharray:none"
       d="m -89.772023,14.527461 c -1.246989,4.521741 8.876429,34.962422 13.41367,37.218853 4.537242,2.256431 53.166794,-11.838793 55.613676,-17.138174 C -18.297797,29.30876 -41.223015,4.3250457 -43.962962,3.8595997 -46.70291,3.3941547 -88.525035,10.00572 -89.772023,14.527461 z"
       id="path4856"
       inkscape:connector-curvature="0"
       sodipodi:nodetypes="zzzzz"
       inkscape:export-filename="/home/alump/Development/bttagwriter/res/drawable-hdpi/ic_launcher.png"
       inkscape:export-xdpi="61.40324"
       inkscape:export-ydpi="61.40324" />
    <path
       sodipodi:nodetypes="ccccccccccccccccccccccccccccccccccc"
       inkscape:connector-curvature="0"
       id="path4858"
       d="m -44.731896,4.8209697 c -14.418722,1.283591 -29.792151,5.6091623 -43.10786,9.8691873 0.209175,0.732108 0.721881,1.316214 0.931056,2.048321 12.883379,-4.904314 28.068339,-7.9871193 41.688002,-10.0321203 7.447191,8.1652363 13.662512,16.7814743 18.644381,25.2548753 -14.804636,7.370649 -30.370232,12.883727 -46.715698,14.245145 -6.538615,-8.570528 -8.608069,-18.04552 -10.986454,-25.999718 12.482063,-4.809809 24.795956,-8.177898 37.800846,-9.729528 4.698022,6.172494 9.241252,12.039476 13.477025,19.598713 -11.573635,4.940836 -24.704083,9.404299 -38.126714,12.033889 -3.539172,-6.008152 -6.305754,-12.473294 -8.612261,-18.481446 10.147721,-4.309586 20.606935,-7.692498 31.679156,-8.612261 2.666966,4.026598 5.340108,8.193502 8.007074,12.2201 -9.616981,4.311493 -19.764432,7.93881 -29.607557,9.380381 l -0.698291,-1.699176 3.468182,-1.559518 -3.514734,-7.890692 -4.585448,2.048322 2.886271,6.517386 0.116382,0.232765 0.512081,1.140543 0.0698,-0.02324 0.791397,1.53624 c -0.215074,0.06577 -0.437342,0.144283 -0.651739,0.209487 l 1.262496,2.646946 c 11.083409,-1.649069 22.466698,-6.385541 33.396027,-10.65402 -3.145998,-6.82246 -6.907103,-11.337699 -10.823517,-16.619336 -12.783916,1.131731 -24.185858,4.88538 -34.658533,9.869185 2.314902,7.059611 5.411547,15.19261 9.729528,22.252221 13.813049,-2.403352 27.418781,-6.113792 42.805267,-13.453748 -3.988134,-8.126132 -10.145262,-16.031967 -15.990875,-23.0436193 -13.491705,1.038335 -28.359228,4.9909193 -41.850935,10.4976503 2.033827,9.219204 5.531302,21.240171 12.68563,31.19035 17.76858,-2.554844 35.531057,-7.863484 52.837386,-16.735718 C -28.163721,22.735622 -35.823327,13.623093 -44.731932,4.8210087 z"
       style="fill:#000000;fill-opacity:0.11415525;stroke:none"
       inkscape:export-filename="/home/alump/Development/bttagwriter/res/drawable-hdpi/ic_launcher.png"
       inkscape:export-xdpi="61.40324"
       inkscape:export-ydpi="61.40324" />
    <path
       sodipodi:nodetypes="cc"
       inkscape:connector-curvature="0"
       id="path5394"
       d="m -39.490098,48.156019 c 0.02754,15.633696 4.120591,18.966666 7.063444,-0.298454"
       style="fill:#8282db;fill-opacity:1;stroke:#2d379c;stroke-width:1;stroke-linecap:butt;stroke-linejoin:miter;stroke-miterlimit:4;stroke-opacity:1;stroke-dasharray:none" />
    <path
       sodipodi:nodetypes="cccccc"
       inkscape:connector-curvature="0"
       id="path5396"
       d="m 227.06716,128.88272 10.30356,-35.759396 -2.6264,-10.90965 -16.76853,17.37463 0.80812,26.870046 z"
       style="fill:#000000;fill-opacity:0.13242008;stroke:none;filter:url(#filter5357)"
       transform="matrix(0.34819785,0,0,0.34819785,-116.59105,15.723877)" />
    <path
       sodipodi:nodetypes="cc"
       inkscape:connector-curvature="0"
       id="path5398"
       d="m -46.155601,27.562606 c 2.767954,-4.845786 7.538916,-5.464603 11.63976,0"
       style="fill:url(#linearGradient5470);fill-opacity:1;stroke:#31368a;stroke-width:1;stroke-linecap:butt;stroke-linejoin:miter;stroke-miterlimit:4;stroke-opacity:1;stroke-dasharray:none" />
    <path
       sodipodi:nodetypes="cccccccccccccc"
       inkscape:connector-curvature="0"
       id="path5400"
       d="m -45.124183,62.851656 c -5.875487,-2.20036 -7.750122,-10.805857 -7.439672,-21.302949 -3.760624,-8.377658 -1.044841,-15.712125 1.530556,-16.402824 4.367279,0.270849 5.436128,1.201383 7.316048,1.969706 1.899182,-1.032786 4.029781,-0.677112 6.190498,-0.140693 1.499476,-0.797888 2.337929,-1.926286 4.78357,-2.251092 6.924823,0.574161 7.094667,13.182621 5.064952,18.852888 0.187592,3.470432 0.375183,6.940861 0.562775,10.411292 -1.520201,9.064787 -4.133944,10.110265 -6.753273,11.11476 -0.156853,-5.680008 0.354939,-11.137139 -1.266239,-17.305257 -5.526342,8.958666 -2.193225,17.969716 -3.376638,18.852882 -2.615861,-1.794211 -4.701274,-3.775555 -6.537234,-9.989215 -0.197999,-4.028259 -0.356729,-5.579265 -0.638118,-9.707828 -3.723391,13.969495 3.786937,13.634299 0.562775,15.89833 z"
       style="fill:url(#radialGradient5467);fill-opacity:1;stroke:#2e39aa;stroke-width:1;stroke-linecap:butt;stroke-linejoin:miter;stroke-miterlimit:4;stroke-opacity:1;stroke-dasharray:none" />
    <path
       sodipodi:nodetypes="cc"
       inkscape:connector-curvature="0"
       id="path5402"
       d="m -47.647876,28.85591 c 4.576316,-2.628271 9.152628,-3.722089 13.728944,0.497425"
       style="fill:none;stroke:#383897;stroke-width:0.75;stroke-linecap:round;stroke-linejoin:miter;stroke-miterlimit:4;stroke-opacity:1;stroke-dasharray:none" />
    <path
       sodipodi:nodetypes="ccccc"
       inkscape:connector-curvature="0"
       id="path5404"
       d="m 238,28.857134 c 10.72648,15.61841 8.90467,28.02044 5.42857,50.57144 5.48115,17.66209 3.63685,39.585656 -4.57143,62.571416 14.09316,-6.27451 21.66289,-23.33775 16,-62.285706 9.35844,-37.796 -5.68982,-51.96407 -16.85714,-50.85715 z"
       style="fill:#000000;fill-opacity:0.20547946;stroke:none;filter:url(#filter5335)"
       transform="matrix(0.34819785,0,0,0.34819785,-116.59105,15.723877)" />
    <path
       sodipodi:nodetypes="ccc"
       inkscape:connector-curvature="0"
       id="path5406"
       d="m 223.42857,146.85714 c -6.22264,-5.67696 -10.87395,-55.334826 12.85714,-58.857136 -9.5093,17.520946 -13.16812,38.314566 -12.85714,58.857136 z"
       style="fill:#000000;fill-opacity:0.34246575;stroke:none;filter:url(#filter5486)"
       transform="matrix(0.34819785,0,0,0.34819785,-116.59105,15.723877)" />
    <path
       sodipodi:nodetypes="ccc"
       inkscape:connector-curvature="0"
       id="path5408"
       d="m 239.42857,137.71428 c 4.29149,-16.75988 5.40809,-33.80318 -3.14286,-50.571426 2.71678,16.857136 4.22384,33.714286 3.14286,50.571426 z"
       style="fill:#ffffff;fill-opacity:0.20547946;stroke:none;filter:url(#filter5247)"
       transform="matrix(0.34819785,0,0,0.34819785,-116.59105,15.723877)" />
    <path
       transform="matrix(-0.34819785,0,0,0.34819785,-30.490472,-32.128455)"
       style="fill:#ffffff;fill-opacity:0.57990866;stroke:none;filter:url(#filter5518)"
       d="m 23.985213,281.72907 c 15.002263,-13.13356 18.477762,-29.29015 17.780452,-54.26391 -3.392954,24.5622 -6.236121,41.5305 -17.780452,54.26391 z"
       id="path5410"
       inkscape:connector-curvature="0"
       sodipodi:nodetypes="ccc" />
    <path
       sodipodi:nodetypes="ccc"
       inkscape:connector-curvature="0"
       id="path5412"
       d="m 206,134.57142 c -9.49176,-15.6234 -14.34079,-43.025136 -2,-47.142846 -3.93297,6.82791 -2.42615,31.860706 2,47.142846 z"
       style="fill:#000000;fill-opacity:0.20547946;stroke:none;filter:url(#filter5267)"
       transform="matrix(0.34819785,0,0,0.34819785,-116.59105,15.723877)" />
    <path
       sodipodi:nodetypes="ccc"
       inkscape:connector-curvature="0"
       id="path5414"
       d="m 197.14286,41.714284 c 11.4573,-7.77789 24.76664,-10.34137 37.14285,-2.28572 -15.87293,-6.20615 -25.44268,0.13559 -37.14285,2.28572 z"
       style="fill:#ffffff;fill-opacity:0.58447487;stroke:none;filter:url(#filter5281)"
       transform="matrix(0.34819785,0,0,0.34819785,-116.59105,15.723877)" />
    <path
       transform="matrix(0.39460656,0,0,0.40229505,-33.335855,-59.711122)"
       d="m -25.142856,237.85715 a 9.1428576,15.285714 0 1 1 -18.285715,0 9.1428576,15.285714 0 1 1 18.285715,0 z"
       sodipodi:ry="15.285714"
       sodipodi:rx="9.1428576"
       sodipodi:cy="237.85715"
       sodipodi:cx="-34.285713"
       id="path5416"
       style="fill:#ffffff;fill-opacity:0.58447487;fill-rule:evenodd;stroke:none;filter:url(#filter5291)"
       sodipodi:type="arc" />
    <path
       sodipodi:nodetypes="cccc"
       inkscape:connector-curvature="0"
       id="path5418"
       d="m 239.18899,45.242094 c 3.40071,9.16838 4.51852,18.98901 0.40406,30.30458 4.48977,-9.45301 8.27178,-18.98466 3.23249,-29.49645 -1.21218,-0.26938 -2.42437,-0.53875 -3.63655,-0.80813 z"
       style="fill:#000000;fill-opacity:0.13242008;stroke:none;filter:url(#filter5388)"
       transform="matrix(0.34819785,0,0,0.34819785,-116.59105,15.723877)" />
    <path
       transform="matrix(-0.34819785,0,0,0.34819785,-38.660851,-33.634874)"
       style="fill:#000000;fill-opacity:0.0821918;stroke:none;filter:url(#filter5388)"
       d="m 27.476149,186.99699 c 3.400713,9.16838 4.518519,18.98901 0.404061,30.30458 4.489769,-9.45301 8.271778,-18.98466 3.232489,-29.49645 -1.212183,-0.26938 -2.424367,-0.53875 -3.63655,-0.80813 z"
       id="path5420"
       inkscape:connector-curvature="0"
       sodipodi:nodetypes="cccc" />
    <rect
       style="fill:#ffffff;fill-opacity:1;fill-rule:evenodd;stroke:#d7d7d7;stroke-width:0.76656002;stroke-linecap:round;stroke-miterlimit:4;stroke-opacity:1;stroke-dasharray:none"
       id="rect6152"
       width="53.221169"
       height="53.659199"
       x="4.8309226"
       y="-19.734585"
       ry="6.3514967" />
    <rect
       ry="5.9134626"
       y="-17.774759"
       x="6.7756467"
       height="49.958569"
       width="49.550743"
       id="rect6154"
       style="fill:none;stroke:#d4d4d4;stroke-width:0.76656002;stroke-linecap:round;stroke-miterlimit:4;stroke-opacity:1;stroke-dasharray:none" />
    <rect
       style="fill:none;stroke:#d4d4d4;stroke-width:0.76656002;stroke-linecap:round;stroke-miterlimit:4;stroke-opacity:1;stroke-dasharray:none"
       id="rect6156"
       width="46.204174"
       height="46.584461"
       x="8.4489279"
       y="-16.087706"
       ry="5.5140781" />
    <rect
       ry="5.1425343"
       y="-14.518253"
       x="10.005564"
       height="43.445557"
       width="43.090897"
       id="rect6158"
       style="fill:none;stroke:#d4d4d4;stroke-width:0.76656002;stroke-linecap:round;stroke-miterlimit:4;stroke-opacity:1;stroke-dasharray:none" />
    <rect
       style="fill:none;stroke:#d4d4d4;stroke-width:0.76656002;stroke-linecap:round;stroke-miterlimit:4;stroke-opacity:1;stroke-dasharray:none"
       id="rect6160"
       width="40.172668"
       height="40.503315"
       x="11.464681"
       y="-13.047132"
       ry="4.7942691" />
    <rect
       ry="4.4463143"
       y="-11.577326"
       x="12.922486"
       height="37.563702"
       width="37.25705"
       id="rect6162"
       style="fill:none;stroke:#d4d4d4;stroke-width:0.76656002;stroke-linecap:round;stroke-miterlimit:4;stroke-opacity:1;stroke-dasharray:none" />
    <rect
       style="fill:none;stroke:#d4d4d4;stroke-width:0.76656002;stroke-linecap:round;stroke-miterlimit:4;stroke-opacity:1;stroke-dasharray:none"
       id="rect6164"
       width="34.151337"
       height="34.432423"
       x="14.314155"
       y="-9.9666471"
       ry="4.0756736" />
    <rect
       ry="3.7048275"
       y="-8.3559866"
       x="15.815307"
       height="31.299416"
       width="31.043901"
       id="rect6171"
       style="fill:none;stroke:#d4d4d4;stroke-width:0.76656002;stroke-linecap:round;stroke-miterlimit:4;stroke-opacity:1;stroke-dasharray:none" />
    <path
       style="fill:#ffffff;fill-opacity:1;stroke:none"
       d="M 17.095884,-6.4840469 8.663724,-17.434904 11.29193,-18.52999 19.067038,-6.2650304 z"
       id="path6173"
       inkscape:connector-curvature="0"
       sodipodi:nodetypes="ccccc" />
    <path
       style="fill:none;stroke:#c8c8c8;stroke-width:0.76656002px;stroke-linecap:butt;stroke-linejoin:miter;stroke-opacity:1"
       d="m 18.245724,-8.1266753 -0.05476,6.0229708"
       id="path6187"
       inkscape:connector-curvature="0"
       sodipodi:nodetypes="cc" />
    <path
       style="fill:none;stroke:#c9c9c9;stroke-width:0.76656002px;stroke-linecap:butt;stroke-linejoin:miter;stroke-opacity:1"
       d="m 11.894227,-17.872938 -2.3544354,3.832799"
       id="path6175"
       inkscape:connector-curvature="0"
       sodipodi:nodetypes="cc" />
    <path
       inkscape:connector-curvature="0"
       id="path6177"
       d="m 13.153575,-16.23031 -2.29968,3.723292"
       style="fill:none;stroke:#c9c9c9;stroke-width:0.76656002px;stroke-linecap:butt;stroke-linejoin:miter;stroke-opacity:1" />
    <path
       style="fill:none;stroke:#c9c9c9;stroke-width:0.76656002px;stroke-linecap:butt;stroke-linejoin:miter;stroke-opacity:1"
       d="m 14.139152,-14.587681 -2.409189,4.5993593"
       id="path6179"
       inkscape:connector-curvature="0"
       sodipodi:nodetypes="cc" />
    <path
       inkscape:connector-curvature="0"
       id="path6181"
       d="m 14.905712,-13.054562 -1.861646,4.4898517"
       style="fill:none;stroke:#c9c9c9;stroke-width:0.76656002px;stroke-linecap:butt;stroke-linejoin:miter;stroke-opacity:1"
       sodipodi:nodetypes="cc" />
    <path
       style="fill:none;stroke:#c9c9c9;stroke-width:0.76656002px;stroke-linecap:butt;stroke-linejoin:miter;stroke-opacity:1"
       d="m 16.055552,-11.521441 -1.587875,4.3803425"
       id="path6183"
       inkscape:connector-curvature="0"
       sodipodi:nodetypes="cc" />
    <path
       inkscape:connector-curvature="0"
       id="path6185"
       d="m 17.150637,-9.988321 -1.259348,3.6137819"
       style="fill:none;stroke:#c9c9c9;stroke-width:0.76656002px;stroke-linecap:butt;stroke-linejoin:miter;stroke-opacity:1"
       sodipodi:nodetypes="cc" />
    <path
       style="fill:#d0d0d0;fill-opacity:1;stroke:none"
       d="m 7.0210946,-14.478173 c 0.4380341,0.547543 9.7462634,9.9652808 9.7462634,9.9652808 l 0,3.94230838 5.256411,0 0,-2.51869748 -4.489851,0 0,-1.6426294 0.657051,-1.0950846 -8.6511765,-11.3888917 z"
       id="path6166"
       inkscape:connector-curvature="0"
       sodipodi:nodetypes="cccccccccc" />
    <path
       transform="matrix(0.78410647,0,0,0.78410647,24.987741,-17.49642)"
       d="m 53.428571,75.285713 a 13.785714,6 0 1 1 -27.571429,0 13.785714,6 0 1 1 27.571429,0 z"
       sodipodi:ry="6"
       sodipodi:rx="13.785714"
       sodipodi:cy="75.285713"
       sodipodi:cx="39.642857"
       id="path6189"
       style="fill:#000000;fill-opacity:0.30593609;fill-rule:evenodd;stroke:none;filter:url(#filter5474)"
       sodipodi:type="arc" />
    <path
       style="fill:#6a6a98;fill-opacity:1;stroke:#8084ae;stroke-width:1.04995810999999994;stroke-linecap:butt;stroke-linejoin:miter;stroke-miterlimit:4;stroke-opacity:1;stroke-dasharray:none"
       d="m 55.407387,23.505211 c 0.0289,16.414729 4.32644,19.914199 7.41632,-0.313364"
       id="path6191"
       inkscape:connector-curvature="0"
       sodipodi:nodetypes="cc" />
    <path
       transform="matrix(0.36559313,0,0,0.36559313,-25.545378,-10.547176)"
       style="fill:#000000;fill-opacity:0.13242008;stroke:none;filter:url(#filter5357)"
       d="m 227.06716,128.88272 10.30356,-35.759396 -2.6264,-10.90965 -16.76853,17.37463 0.80812,26.870046 z"
       id="path6193"
       inkscape:connector-curvature="0"
       sodipodi:nodetypes="cccccc" />
    <path
       style="fill:url(#linearGradient6219);fill-opacity:1;stroke:#9498d9;stroke-width:1.04995810999999994;stroke-linecap:butt;stroke-linejoin:miter;stroke-miterlimit:4;stroke-opacity:1;stroke-dasharray:none"
       d="m 48.408889,1.882991 c 2.906234,-5.087871 7.915538,-5.737603 12.221258,0"
       id="path6195"
       inkscape:connector-curvature="0"
       sodipodi:nodetypes="cc" />
    <path
       style="fill:url(#radialGradient6221);fill-opacity:1;stroke:#969ce2;stroke-width:1.04995810999999994;stroke-linecap:butt;stroke-linejoin:miter;stroke-miterlimit:4;stroke-opacity:1;stroke-dasharray:none"
       d="M 49.491841,38.93501 C 43.322817,36.62473 41.354528,27.58932 41.680479,16.56781 37.73199,7.771622 40.583444,0.07073904 43.287508,-0.65446696 c 4.585467,0.284382 5.70771,1.261403 7.681545,2.06811096 1.99406,-1.08438196 4.231104,-0.71094096 6.499774,-0.147722 1.57437,-0.83774996 2.45471,-2.02251896 5.02254,-2.363552 7.27078,0.60284504 7.44909,13.841198 5.31799,19.79474 0.19696,3.643808 0.39393,7.287613 0.59087,10.93142 -1.59614,9.51765 -4.34045,10.61535 -7.09064,11.67003 -0.16469,-5.96377 0.37267,-11.69353 -1.3295,-18.169793 -5.80243,9.406223 -2.30279,18.867453 -3.54532,19.794733 -2.74655,-1.88384 -4.936134,-3.96417 -6.863823,-10.48825 -0.207898,-4.22951 -0.374546,-5.858 -0.669999,-10.192816 -3.909401,14.667386 3.976125,14.315436 0.590896,16.692576 z"
       id="path6197"
       inkscape:connector-curvature="0"
       sodipodi:nodetypes="cccccccccccccc" />
    <path
       style="fill:none;stroke:#9393d7;stroke-width:0.78746855000000004;stroke-linecap:round;stroke-linejoin:miter;stroke-miterlimit:4;stroke-opacity:1;stroke-dasharray:none"
       d="m 46.842056,3.240905 c 4.804947,-2.75957196 9.609881,-3.90803496 14.414821,0.522276"
       id="path6199"
       inkscape:connector-curvature="0"
       sodipodi:nodetypes="cc" />
    <path
       transform="matrix(0.36559313,0,0,0.36559313,-25.545378,-10.547176)"
       style="fill:#000000;fill-opacity:0.20547946;stroke:none;filter:url(#filter5335)"
       d="m 238,28.857134 c 10.72648,15.61841 8.90467,28.02044 5.42857,50.57144 5.48115,17.66209 3.63685,39.585656 -4.57143,62.571416 14.09316,-6.27451 21.66289,-23.33775 16,-62.285706 9.35844,-37.796 -5.68982,-51.96407 -16.85714,-50.85715 z"
       id="path6201"
       inkscape:connector-curvature="0"
       sodipodi:nodetypes="ccccc" />
    <path
       transform="matrix(0.36559313,0,0,0.36559313,-25.545378,-10.547176)"
       style="fill:#000000;fill-opacity:0.34246575;stroke:none;filter:url(#filter5486)"
       d="m 223.42857,146.85714 c -6.22264,-5.67696 -10.87395,-55.334826 12.85714,-58.857136 -9.5093,17.520946 -13.16812,38.314566 -12.85714,58.857136 z"
       id="path6203"
       inkscape:connector-curvature="0"
       sodipodi:nodetypes="ccc" />
    <path
       transform="matrix(0.36559313,0,0,0.36559313,-25.545378,-10.547176)"
       style="fill:#ffffff;fill-opacity:0.20547946;stroke:none;filter:url(#filter5247)"
       d="m 239.42857,137.71428 c 4.29149,-16.75988 5.40809,-33.80318 -3.14286,-50.571426 2.71678,16.857136 4.22384,33.714286 3.14286,50.571426 z"
       id="path6205"
       inkscape:connector-curvature="0"
       sodipodi:nodetypes="ccc" />
    <path
       sodipodi:nodetypes="ccc"
       inkscape:connector-curvature="0"
       id="path6207"
       d="m 23.985213,281.72907 c 15.002263,-13.13356 18.477762,-29.29015 17.780452,-54.26391 -3.392954,24.5622 -6.236121,41.5305 -17.780452,54.26391 z"
       style="fill:#ffffff;fill-opacity:0.57990866;stroke:none;filter:url(#filter5518)"
       transform="matrix(-0.36559313,0,0,0.36559313,64.856627,-60.790118)" />
    <path
       transform="matrix(0.36559313,0,0,0.36559313,-25.545378,-10.547176)"
       style="fill:#000000;fill-opacity:0.20547946;stroke:none;filter:url(#filter5267)"
       d="m 206,134.57142 c -9.49176,-15.6234 -14.34079,-43.025136 -2,-47.142846 -3.93297,6.82791 -2.42615,31.860706 2,47.142846 z"
       id="path6209"
       inkscape:connector-curvature="0"
       sodipodi:nodetypes="ccc" />
    <path
       transform="matrix(0.36559313,0,0,0.36559313,-25.545378,-10.547176)"
       style="fill:#ffffff;fill-opacity:0.58447487;stroke:none;filter:url(#filter5281)"
       d="m 197.14286,41.714284 c 11.4573,-7.77789 24.76664,-10.34137 37.14285,-2.28572 -15.87293,-6.20615 -25.44268,0.13559 -37.14285,2.28572 z"
       id="path6211"
       inkscape:connector-curvature="0"
       sodipodi:nodetypes="ccc" />
    <path
       sodipodi:type="arc"
       style="fill:#ffffff;fill-opacity:0.58447487;fill-rule:evenodd;stroke:none;filter:url(#filter5291)"
       id="path6213"
       sodipodi:cx="-34.285713"
       sodipodi:cy="237.85715"
       sodipodi:rx="9.1428576"
       sodipodi:ry="15.285714"
       d="m -25.142856,237.85715 a 9.1428576,15.285714 0 1 1 -18.285715,0 9.1428576,15.285714 0 1 1 18.285715,0 z"
       transform="matrix(0.41432033,0,0,0.42239292,61.869087,-89.750765)" />
    <path
       transform="matrix(0.36559313,0,0,0.36559313,-25.545378,-10.547176)"
       style="fill:#000000;fill-opacity:0.13242008;stroke:none;filter:url(#filter5388)"
       d="m 239.18899,45.242094 c 3.40071,9.16838 4.51852,18.98901 0.40406,30.30458 4.48977,-9.45301 8.27178,-18.98466 3.23249,-29.49645 -1.21218,-0.26938 -2.42437,-0.53875 -3.63655,-0.80813 z"
       id="path6215"
       inkscape:connector-curvature="0"
       sodipodi:nodetypes="cccc" />
    <path
       sodipodi:nodetypes="cccc"
       inkscape:connector-curvature="0"
       id="path6217"
       d="m 27.476149,186.99699 c 3.400713,9.16838 4.518519,18.98901 0.404061,30.30458 4.489769,-9.45301 8.271778,-18.98466 3.232489,-29.49645 -1.212183,-0.26938 -2.424367,-0.53875 -3.63655,-0.80813 z"
       style="fill:#000000;fill-opacity:0.0821918;stroke:none;filter:url(#filter5388)"
       transform="matrix(-0.36559313,0,0,0.36559313,56.278067,-62.371794)" />
  </g>
</svg>
